<svg width="1637" height="1121" viewBox="0 0 1637 1121" xmlns="http://www.w3.org/2000/svg"> <path d="m1371.8 680.22c-1.59 1.92-3.46 3.528-5.53 4.779 2.07 1.253 3.94 2.859 5.53 4.78 4.13 5.002 5.8 11.535 4.58 17.921-2.53 13.297-7.25 26.015-14.04 37.8-6.78 11.791-15.4 22.251-25.61 31.094-3.93 3.405-8.96 5.281-14.16 5.281-1.19 0-2.4-0.101-3.59-0.301-2.46-0.412-4.79-1.236-6.91-2.411-0.04 2.426-0.5 4.857-1.36 7.193-2.26 6.083-7.06 10.802-13.18 12.942-12.75 4.447-26.09 6.701-39.66 6.701-13.56 0-26.9-2.254-39.65-6.701-6.12-2.14-10.92-6.86-13.18-12.949-0.87-2.334-1.32-4.76-1.37-7.186-2.11 1.172-4.44 1.996-6.89 2.411-1.21 0.2-2.42 0.301-3.6 0.301h-0.01c-5.2-2e-3 -10.22-1.882-14.15-5.288-10.22-8.853-18.84-19.313-25.61-31.087-6.79-11.792-11.51-24.511-14.04-37.8-1.22-6.375 0.45-12.912 4.58-17.923 1.59-1.923 3.46-3.531 5.53-4.781-2.07-1.251-3.94-2.858-5.53-4.781-4.13-5.009-5.79-11.543-4.58-17.923 2.53-13.294 7.25-26.009 14.04-37.794 6.78-11.785 15.4-22.246 25.61-31.095 3.93-3.407 8.96-5.284 14.16-5.284 1.18 0 2.39 0.101 3.59 0.303 2.46 0.415 4.79 1.238 6.91 2.415 0.04-2.426 0.49-4.853 1.36-7.191 2.26-6.093 7.07-10.81 13.19-12.944 12.75-4.449 26.09-6.703 39.65-6.703s26.9 2.254 39.65 6.702c6.12 2.131 10.93 6.851 13.18 12.949 0.87 2.333 1.32 4.761 1.36 7.181 2.12-1.173 4.45-1.995 6.9-2.41 1.19-0.198 2.4-0.299 3.6-0.299 5.2 0 10.23 1.877 14.16 5.286 10.21 8.84 18.83 19.301 25.62 31.092 6.78 11.786 11.5 24.503 14.03 37.797 1.22 6.382-0.45 12.916-4.58 17.923zm-103.41 23.047c0.06-3.638 1.02-7.261 2.89-10.506s4.51-5.893 7.62-7.762c-3.11-1.869-5.75-4.518-7.62-7.761-1.87-3.246-2.83-6.868-2.89-10.507-3.17 1.767-6.78 2.742-10.51 2.742-3.74 0-7.35-0.974-10.52-2.742-0.06 3.638-1.02 7.264-2.89 10.507-1.87 3.242-4.51 5.892-7.63 7.761 3.12 1.869 5.77 4.522 7.63 7.767 1.87 3.242 2.83 6.866 2.89 10.501 3.17-1.767 6.78-2.739 10.51-2.739 3.74 0 7.35 0.974 10.52 2.739zm-23.48-18.268c0-7.182 5.81-13.004 12.97-13.004s12.96 5.822 12.96 13.004c0 7.181-5.8 13.003-12.96 13.003s-12.97-5.822-12.97-13.003zm12.97-23.286c-4.96 0-9.58-2.676-12.06-6.983l-32.54-56.522c-2.08-3.618-2.44-7.94-0.99-11.857 1.46-3.917 4.54-6.948 8.48-8.319 11.93-4.164 24.42-6.273 37.11-6.273s25.18 2.109 37.11 6.273c3.93 1.371 7.02 4.402 8.47 8.322 1.45 3.916 1.09 8.236-0.99 11.854l-32.53 56.522c-2.48 4.307-7.1 6.983-12.06 6.983zm-107.97 13.56c2.66 3.223 6.57 5.069 10.74 5.069l65.06-3e-3c4.96 0 9.58-2.675 12.06-6.984 2.48-4.308 2.48-9.661 0-13.969l-32.53-56.521c-2.08-3.62-5.63-6.095-9.74-6.79-0.77-0.128-1.55-0.196-2.32-0.196-3.34 0-6.57 1.209-9.1 3.4-9.56 8.273-17.62 18.064-23.97 29.099-6.35 11.027-10.77 22.93-13.14 35.372-0.78 4.105 0.29 8.305 2.94 11.523zm205.19 5.069h-65.06c-4.96 0-9.58-2.678-12.06-6.986s-2.48-9.661 0-13.967l32.53-56.524c2.08-3.62 5.63-6.095 9.74-6.79 0.77-0.128 1.54-0.193 2.32-0.193 3.34 0 6.58 1.205 9.1 3.397 9.56 8.279 17.63 18.072 23.97 29.101 6.35 11.03 10.77 22.933 13.14 35.372 0.79 4.105-0.29 8.303-2.94 11.52-2.66 3.224-6.57 5.07-10.74 5.07zm-171.02 90.376c2.53 2.19 5.76 3.397 9.1 3.399 0.77 0 1.55-0.068 2.32-0.194 4.11-0.696 7.66-3.169 9.74-6.79l32.53-56.521c2.48-4.309 2.48-9.662 0-13.968-2.48-4.311-7.1-6.985-12.06-6.985l-65.07-4e-3c-4.16 0-8.07 1.847-10.73 5.07-2.65 3.219-3.72 7.42-2.94 11.522 2.37 12.443 6.79 24.342 13.14 35.372 6.34 11.027 14.41 20.817 23.97 29.099zm138.49 3.399c-0.77 0-1.55-0.067-2.32-0.195-4.1-0.693-7.66-3.168-9.74-6.787l-32.53-56.524c-2.48-4.305-2.48-9.659 0-13.968 2.48-4.307 7.1-6.985 12.06-6.985h65.07c4.16 0 8.07 1.845 10.73 5.066 2.65 3.22 3.72 7.42 2.94 11.522-2.37 12.443-6.79 24.342-13.13 35.372-6.36 11.034-14.42 20.825-23.98 29.102-2.52 2.192-5.76 3.397-9.1 3.397zm-64.7 24.121c-12.7 0-25.18-2.109-37.1-6.269-3.94-1.375-7.03-4.407-8.48-8.324-1.45-3.915-1.09-8.236 0.99-11.856l32.53-56.522c2.48-4.305 7.11-6.981 12.06-6.981 4.96 0 9.59 2.676 12.06 6.981l32.54 56.522c2.08 3.622 2.44 7.941 0.99 11.856-1.45 3.916-4.54 6.949-8.48 8.324-11.92 4.16-24.41 6.269-37.11 6.269z" clip-rule="evenodd" fill="#fff" fill-opacity=".21" fill-rule="evenodd"/> <path d="m1633.6 588.2c-0.93 1.127-2.02 2.07-3.24 2.804 1.21 0.735 2.31 1.678 3.24 2.805 2.42 2.935 3.4 6.769 2.69 10.516-1.48 7.802-4.26 15.265-8.23 22.18-3.99 6.918-9.04 13.056-15.04 18.245-2.3 1.998-5.25 3.099-8.3 3.099-0.7 0-1.41-0.059-2.11-0.177-1.44-0.242-2.81-0.725-4.05-1.414-0.03 1.423-0.3 2.849-0.8 4.22-1.33 3.569-4.15 6.338-7.74 7.594-7.48 2.609-15.31 3.932-23.27 3.932s-15.78-1.323-23.26-3.932c-3.6-1.256-6.41-4.025-7.74-7.598-0.51-1.37-0.77-2.793-0.8-4.216-1.24 0.687-2.6 1.171-4.04 1.414-0.71 0.118-1.42 0.177-2.12 0.177-3.05-2e-3 -6-1.105-8.31-3.103-5.99-5.195-11.05-11.333-15.02-18.241-3.99-6.92-6.76-14.383-8.24-22.18-0.72-3.742 0.26-7.577 2.69-10.517 0.93-1.129 2.02-2.072 3.24-2.806-1.22-0.734-2.31-1.677-3.24-2.805-2.42-2.939-3.4-6.773-2.69-10.517 1.48-7.801 4.26-15.262 8.24-22.177 3.98-6.914 9.03-13.053 15.03-18.245 2.3-2 5.25-3.101 8.3-3.101 0.7 0 1.41 0.06 2.11 0.178 1.44 0.243 2.81 0.726 4.05 1.417 0.03-1.423 0.29-2.848 0.8-4.219 1.33-3.576 4.15-6.344 7.74-7.596 7.48-2.61 15.31-3.933 23.27-3.933 7.95 0 15.78 1.323 23.26 3.933 3.59 1.25 6.41 4.019 7.74 7.598 0.51 1.369 0.77 2.793 0.8 4.213 1.24-0.688 2.6-1.17 4.04-1.413 0.7-0.117 1.41-0.176 2.12-0.176 3.05 0 6 1.101 8.31 3.102 5.99 5.187 11.04 11.325 15.03 18.243 3.98 6.916 6.75 14.378 8.23 22.179 0.72 3.745-0.27 7.579-2.69 10.517zm-60.68 13.523c0.04-2.134 0.6-4.26 1.7-6.164s2.65-3.458 4.47-4.555c-1.82-1.097-3.37-2.651-4.47-4.554-1.1-1.904-1.66-4.03-1.7-6.165-1.86 1.036-3.97 1.609-6.16 1.609-2.2 0-4.31-0.572-6.17-1.609-0.04 2.135-0.6 4.262-1.7 6.165-1.1 1.902-2.65 3.457-4.48 4.554 1.83 1.097 3.39 2.653 4.48 4.558 1.1 1.902 1.66 4.028 1.7 6.161 1.86-1.036 3.97-1.607 6.16-1.607 2.2 0 4.31 0.572 6.17 1.607zm-13.77-10.719c0-4.214 3.4-7.631 7.61-7.631 4.2 0 7.6 3.417 7.6 7.631s-3.4 7.63-7.6 7.63c-4.21 0-7.61-3.416-7.61-7.63zm7.61-13.664c-2.91 0-5.63-1.57-7.08-4.097l-19.09-33.166c-1.22-2.123-1.43-4.659-0.58-6.957s2.66-4.077 4.97-4.882c7-2.443 14.33-3.681 21.78-3.681s14.77 1.238 21.77 3.681c2.31 0.805 4.12 2.584 4.97 4.883 0.86 2.298 0.65 4.833-0.58 6.956l-19.09 33.166c-1.45 2.527-4.16 4.097-7.07 4.097zm-63.35 7.957c1.56 1.891 3.85 2.974 6.29 2.974l38.18-2e-3c2.91 0 5.62-1.569 7.08-4.097 1.45-2.528 1.45-5.669 0-8.197l-19.09-33.165c-1.22-2.124-3.3-3.577-5.71-3.984-0.45-0.075-0.91-0.115-1.37-0.115-1.96 0-3.85 0.709-5.34 1.994-5.6 4.855-10.34 10.6-14.06 17.075-3.73 6.471-6.32 13.455-7.71 20.756-0.46 2.408 0.17 4.873 1.73 6.761zm120.4 2.974h-38.18c-2.91 0-5.62-1.571-7.08-4.099-1.45-2.528-1.45-5.669 0-8.195l19.09-33.167c1.22-2.124 3.3-3.576 5.72-3.984 0.44-0.075 0.9-0.114 1.36-0.114 1.96 0 3.85 0.707 5.34 1.993 5.61 4.858 10.34 10.605 14.06 17.076 3.73 6.473 6.32 13.457 7.71 20.756 0.46 2.409-0.17 4.872-1.73 6.76-1.55 1.891-3.85 2.974-6.29 2.974zm-100.36 53.031c1.49 1.285 3.38 1.993 5.34 1.994 0.46 0 0.91-0.04 1.36-0.114 2.41-0.408 4.5-1.859 5.72-3.984l19.09-33.165c1.45-2.528 1.45-5.669 0-8.196-1.46-2.53-4.17-4.099-7.08-4.099l-38.18-2e-3c-2.44 0-4.74 1.084-6.29 2.975-1.56 1.889-2.19 4.354-1.73 6.761 1.39 7.301 3.98 14.283 7.71 20.755 3.72 6.471 8.45 12.215 14.06 17.075zm81.27 1.994c-0.46 0-0.91-0.039-1.36-0.114-2.41-0.406-4.5-1.859-5.72-3.983l-19.09-33.167c-1.45-2.526-1.45-5.667 0-8.195 1.46-2.528 4.17-4.099 7.08-4.099h38.18c2.44 0 4.74 1.082 6.29 2.973 1.56 1.889 2.19 4.353 1.73 6.76-1.39 7.301-3.98 14.283-7.71 20.756-3.72 6.474-8.45 12.219-14.06 17.076-1.49 1.286-3.38 1.993-5.34 1.993zm-37.97 14.154c-7.45 0-14.78-1.238-21.77-3.679-2.31-0.806-4.12-2.585-4.97-4.884-0.86-2.297-0.65-4.833 0.58-6.957l19.09-33.166c1.45-2.526 4.16-4.096 7.07-4.096s5.63 1.57 7.08 4.096l19.09 33.166c1.22 2.126 1.44 4.66 0.58 6.957-0.85 2.298-2.66 4.078-4.97 4.884-7 2.441-14.33 3.679-21.78 3.679z" clip-rule="evenodd" fill="#fff" fill-opacity=".21" fill-rule="evenodd"/> <path d="m1446.1 249.72c-2.83 3.432-6.17 6.306-9.87 8.541 3.7 2.239 7.04 5.11 9.87 8.544 7.38 8.939 10.36 20.617 8.2 32.03-4.53 23.765-12.97 46.497-25.1 67.559-12.12 21.073-27.53 39.768-45.78 55.574-7.01 6.085-16 9.439-25.3 9.439-2.12 0-4.29-0.18-6.42-0.538-4.39-0.737-8.56-2.21-12.34-4.309-0.08 4.336-0.89 8.68-2.45 12.855-4.03 10.872-12.61 19.306-23.55 23.132-22.79 7.947-46.63 11.976-70.87 11.976-24.25 0-48.09-4.029-70.87-11.976-10.95-3.826-19.53-12.261-23.57-23.145-1.55-4.171-2.35-8.506-2.44-12.842-3.78 2.095-7.93 3.567-12.31 4.309-2.16 0.358-4.32 0.538-6.45 0.538-9.3-5e-3 -18.28-3.364-25.3-9.452-18.26-15.823-33.66-34.518-45.77-55.561-12.13-21.076-20.57-43.807-25.09-67.559-2.18-11.395 0.8-23.077 8.19-32.033 2.83-3.438 6.17-6.311 9.87-8.545-3.7-2.237-7.04-5.109-9.87-8.546-7.38-8.952-10.36-20.63-8.19-32.033 4.52-23.76 12.96-46.486 25.09-67.548 12.12-21.063 27.52-39.761 45.78-55.576 7.02-6.0894 16-9.4431 25.29-9.4431 2.13 0 4.29 0.1805 6.43 0.5414 4.39 0.7415 8.55 2.2123 12.34 4.3163 0.08-4.3358 0.89-8.6746 2.44-12.852 4.04-10.89 12.63-19.321 23.56-23.135 22.8-7.9512 46.64-11.98 70.87-11.98 24.24 0 48.09 4.029 70.87 11.979 10.94 3.8079 19.53 12.243 23.57 23.144 1.54 4.1689 2.35 8.5077 2.43 12.833 3.78-2.0949 7.94-3.5643 12.32-4.3057 2.13-0.3549 4.29-0.5354 6.44-0.5354 9.3 0 18.29 3.3553 25.31 9.4476 18.25 15.8 33.65 34.497 45.78 55.57 12.12 21.065 20.56 43.794 25.09 67.554 2.17 11.407-0.82 23.085-8.2 32.033zm-184.82 41.191c0.11-6.501 1.83-12.977 5.17-18.776 3.33-5.799 8.06-10.532 13.62-13.872-5.56-3.342-10.29-8.076-13.62-13.872-3.34-5.801-5.06-12.275-5.17-18.778-5.67 3.156-12.12 4.899-18.79 4.899s-13.12-1.741-18.79-4.899c-0.11 6.501-1.83 12.981-5.17 18.778-3.34 5.794-8.07 10.53-13.63 13.872 5.57 3.34 10.3 8.08 13.63 13.881 3.34 5.794 5.07 12.27 5.17 18.767 5.67-3.157 12.12-4.895 18.79-4.895s13.12 1.741 18.79 4.895zm-41.96-32.65c0-12.836 10.37-23.241 23.17-23.241s23.17 10.405 23.17 23.241-10.37 23.242-23.17 23.242-23.17-10.406-23.17-23.242zm23.17-41.618c-8.86 0-17.12-4.782-21.55-12.481l-58.15-101.02c-3.72-6.4671-4.37-14.193-1.77-21.192 2.6-7.0008 8.12-12.419 15.15-14.869 21.32-7.4414 43.64-11.212 66.32-11.212 22.7 0 45.01 3.7703 66.33 11.212 7.03 2.4498 12.55 7.8684 15.15 14.874 2.59 6.9992 1.95 14.72-1.77 21.187l-58.15 101.02c-4.44 7.699-12.7 12.481-21.56 12.481zm-192.96 24.236c4.75 5.76 11.74 9.059 19.19 9.059l116.29-6e-3c8.86 0 17.11-4.781 21.55-12.481 4.43-7.7 4.43-17.268 0-24.966l-58.14-101.02c-3.73-6.469-10.07-10.893-17.41-12.135-1.37-0.2286-2.77-0.3505-4.15-0.3505-5.97 0-11.75 2.1592-16.27 6.0762-17.07 14.786-31.49 32.286-42.84 52.008-11.35 19.709-19.25 40.982-23.48 63.22-1.4 7.336 0.52 14.844 5.26 20.595zm366.74 9.059h-116.29c-8.87 0-17.13-4.785-21.56-12.485s-4.43-17.268 0-24.964l58.14-101.02c3.72-6.469 10.07-10.892 17.41-12.135 1.37-0.2286 2.76-0.3459 4.14-0.3459 5.98 0 11.76 2.1536 16.27 6.0716 17.09 14.797 31.5 32.299 42.85 52.011 11.34 19.715 19.25 40.988 23.48 63.22 1.4 7.338-0.52 14.839-5.27 20.59-4.74 5.762-11.73 9.061-19.17 9.061zm-305.68 161.53c4.52 3.914 10.29 6.072 16.27 6.075 1.38 0 2.78-0.122 4.14-0.348 7.35-1.243 13.69-5.663 17.41-12.135l58.15-101.02c4.43-7.7 4.43-17.268 0-24.964-4.43-7.706-12.69-12.485-21.56-12.485l-116.29-6e-3c-7.44 0-14.43 3.301-19.18 9.061-4.74 5.754-6.66 13.261-5.26 20.593 4.23 22.238 12.13 43.505 23.48 63.22 11.34 19.709 25.76 37.205 42.84 52.008zm247.53 6.075c-1.38 0-2.78-0.121-4.15-0.349-7.34-1.238-13.68-5.662-17.41-12.131l-58.14-101.02c-4.43-7.694-4.43-17.263 0-24.963 4.43-7.699 12.69-12.486 21.56-12.486h116.29c7.44 0 14.43 3.298 19.18 9.055 4.74 5.754 6.66 13.262 5.26 20.593-4.23 22.239-12.13 43.506-23.48 63.221-11.35 19.719-25.76 37.218-42.84 52.012-4.52 3.918-10.3 6.072-16.27 6.072zm-115.63 43.111c-22.7 0-45.02-3.77-66.33-11.206-7.03-2.456-12.55-7.876-15.14-14.876-2.6-6.998-1.96-14.721 1.76-21.191l58.15-101.02c4.44-7.694 12.7-12.476 21.56-12.476s17.12 4.782 21.55 12.476l58.15 101.02c3.72 6.475 4.37 14.194 1.77 21.191-2.6 6.999-8.12 12.42-15.15 14.876-21.31 7.436-43.63 11.206-66.32 11.206z" clip-rule="evenodd" fill="#fff" fill-opacity=".21" fill-rule="evenodd"/> <path d="m450.34 365.69c2.33-0.872 4.754-1.33 7.173-1.377-1.167-2.12-1.985-4.447-2.395-6.902-1.074-6.396 0.746-12.889 4.99-17.813 8.842-10.249 19.292-18.902 31.057-25.716 11.772-6.819 24.467-11.568 37.732-14.121 5.102-0.985 10.395-0.096 14.898 2.504 1.03 0.594 2.028 1.287 2.965 2.059 1.921 1.585 3.525 3.463 4.772 5.539 1.253-2.078 2.861-3.956 4.781-5.545 4.994-4.14 11.513-5.826 17.884-4.619 13.266 2.525 25.947 7.243 37.692 14.024 11.748 6.783 22.174 15.406 30.988 25.628 4.234 4.916 6.034 11.405 4.944 17.808-0.415 2.455-1.237 4.781-2.411 6.905 2.419 0.043 4.844 0.491 7.173 1.357 1.149 0.432 2.246 0.949 3.274 1.543l4e-3 2e-3c4.502 2.602 7.914 6.743 9.613 11.657 4.421 12.775 6.654 26.142 6.635 39.726-0.019 13.606-2.287 26.982-6.742 39.755-2.132 6.131-6.845 10.958-12.93 13.231-2.333 0.874-4.757 1.331-7.174 1.379 1.166 2.118 1.983 4.445 2.392 6.902 1.071 6.402-0.751 12.895-4.992 17.813-8.839 10.248-19.287 18.898-31.055 25.711-11.767 6.814-24.461 11.566-37.729 14.123-5.105 0.987-10.397 0.098-14.899-2.501-1.03-0.595-2.026-1.287-2.964-2.061-1.921-1.588-3.526-3.465-4.772-5.544-1.253 2.078-2.858 3.955-4.776 5.546-5.004 4.147-11.524 5.829-17.891 4.617-13.269-2.523-25.949-7.241-37.69-14.02-11.747-6.782-22.174-15.405-30.99-25.631-4.233-4.904-6.037-11.396-4.943-17.806 0.418-2.453 1.241-4.781 2.411-6.899-2.419-0.044-4.844-0.494-7.176-1.361-1.129-0.423-2.228-0.941-3.267-1.541-4.507-2.602-7.924-6.742-9.623-11.659-4.42-12.76-6.654-26.129-6.634-39.732 0.017-13.6 2.286-26.974 6.74-39.753 2.139-6.135 6.855-10.957 12.935-13.228zm101.08 31.745c-1.871 3.12-4.516 5.776-7.757 7.652-3.238 1.877-6.855 2.847-10.482 2.911 1.758 3.174 2.726 6.791 2.72 10.532-5e-3 3.745-0.981 7.364-2.748 10.545 3.629 0.056 7.241 1.016 10.474 2.882 3.234 1.867 5.873 4.516 7.735 7.632 1.871-3.121 4.518-5.779 7.757-7.654 3.238-1.874 6.856-2.845 10.485-2.909-1.762-3.175-2.729-6.796-2.723-10.54 6e-3 -3.74 0.981-7.361 2.749-10.538-3.63-0.056-7.241-1.018-10.473-2.884-3.235-1.868-5.874-4.516-7.737-7.629zm11.197 27.558c-3.591 6.22-11.528 8.36-17.729 4.78s-8.316-11.524-4.725-17.744c3.591-6.219 11.528-8.359 17.729-4.779 6.2 3.58 8.316 11.524 4.725 17.743zm-22.871 13.684c4.295 2.48 6.959 7.107 6.954 12.078l-0.086 65.216c-7e-3 4.174-1.856 8.098-5.071 10.763-3.217 2.666-7.407 3.748-11.5 2.967-12.413-2.359-24.283-6.776-35.274-13.122-10.996-6.348-20.755-14.419-29.001-23.987-2.722-3.154-3.881-7.324-3.179-11.445 0.7-4.117 3.172-7.679 6.784-9.772l56.436-32.681c4.304-2.489 9.643-2.496 13.937-0.017zm100.28 42.238c-0.689-4.12-3.154-7.674-6.761-9.757l-56.35-32.53c-4.295-2.479-9.631-2.472-13.935 0.019-4.301 2.491-6.978 7.127-6.986 12.096l-0.086 65.216c-5e-3 4.177 1.831 8.094 5.04 10.75 0.6 0.494 1.242 0.943 1.914 1.331 2.894 1.671 6.296 2.24 9.58 1.606 12.411-2.388 24.292-6.834 35.31-13.215 11.011-6.376 20.791-14.473 29.064-24.065 2.728-3.164 3.898-7.339 3.21-11.451zm-175.16-106.98 56.348 32.533c4.297 2.48 6.96 7.109 6.953 12.08s-2.684 9.607-6.984 12.096l-56.435 32.686c-3.614 2.093-7.925 2.461-11.831 1.009-0.726-0.272-1.433-0.604-2.104-0.991-2.895-1.672-5.093-4.332-6.185-7.494-4.139-11.95-6.227-24.463-6.21-37.188 0.018-12.726 2.139-25.246 6.309-37.202 1.373-3.947 4.403-7.045 8.311-8.504 3.91-1.465 8.221-1.108 11.828 0.975zm193.3 7.245c-1.094-3.16-3.288-5.821-6.181-7.493-0.672-0.388-1.381-0.719-2.107-0.992-3.907-1.452-8.216-1.084-11.831 1.009l-56.434 32.684c-4.302 2.491-6.978 7.127-6.984 12.096-9e-3 4.973 2.657 9.6 6.952 12.08l56.347 32.535c3.607 2.083 7.917 2.439 11.828 0.975 3.909-1.46 6.939-4.561 8.312-8.505 4.169-11.961 6.29-24.476 6.308-37.202 0.018-12.723-2.073-25.235-6.21-37.187zm-118.24-72.191c0.67 0.387 1.313 0.835 1.913 1.33 3.211 2.653 5.049 6.573 5.045 10.749l-0.089 65.217c-7e-3 4.967-2.684 9.604-6.985 12.095s-9.642 2.5-13.938 0.02l-56.349-32.533c-3.607-2.083-6.073-5.637-6.761-9.754-0.689-4.115 0.483-8.289 3.211-11.451 8.273-9.591 18.051-17.685 29.063-24.064 11.016-6.38 22.896-10.827 35.311-13.217 3.285-0.635 6.686-0.063 9.579 1.608zm68.092 11.46c11.001 6.351 20.759 14.421 29.003 23.984 2.72 3.157 3.879 7.328 3.178 11.446-0.698 4.118-3.17 7.68-6.785 9.774l-56.436 32.682c-4.302 2.488-9.642 2.494-13.935 0.015-4.295-2.479-6.96-7.108-6.955-12.076l0.085-65.216c8e-3 -4.179 1.855-8.1 5.072-10.763 3.216-2.665 7.406-3.748 11.501-2.971 12.408 2.36 24.276 6.776 35.272 13.125z" clip-rule="evenodd" fill="#fff" fill-opacity=".21" fill-rule="evenodd"/> <path d="m141.52 422.98c1.367-0.511 2.789-0.78 4.209-0.808-0.685-1.244-1.165-2.609-1.405-4.05-0.631-3.752 0.438-7.563 2.927-10.452 5.189-6.013 11.32-11.091 18.224-15.09 6.907-4.001 14.357-6.787 22.141-8.285 2.993-0.578 6.099-0.057 8.741 1.469 0.605 0.349 1.19 0.755 1.74 1.208 1.127 0.93 2.068 2.032 2.8 3.251 0.735-1.22 1.679-2.322 2.805-3.254 2.931-2.43 6.756-3.419 10.494-2.711 7.785 1.482 15.226 4.251 22.117 8.23 6.893 3.979 13.012 9.039 18.183 15.037 2.485 2.885 3.541 6.693 2.901 10.45-0.243 1.44-0.726 2.805-1.414 4.051 1.419 0.026 2.842 0.289 4.209 0.797 0.673 0.253 1.317 0.556 1.921 0.905l2e-3 1e-3c2.641 1.527 4.644 3.957 5.641 6.84 2.594 7.496 3.904 15.34 3.893 23.311-0.011 7.983-1.342 15.832-3.956 23.327-1.251 3.597-4.017 6.43-7.587 7.763-1.369 0.513-2.791 0.781-4.21 0.809 0.685 1.243 1.164 2.609 1.404 4.05 0.628 3.757-0.441 7.567-2.93 10.453-5.186 6.013-11.316 11.089-18.222 15.087-6.904 3.998-14.353 6.786-22.138 8.286-2.996 0.579-6.101 0.058-8.743-1.467-0.604-0.349-1.189-0.755-1.739-1.21-1.127-0.931-2.069-2.033-2.8-3.252-0.735 1.219-1.677 2.32-2.802 3.254-2.937 2.433-6.762 3.42-10.499 2.709-7.785-1.481-15.226-4.249-22.115-8.227-6.893-3.979-13.011-9.039-18.184-15.039-2.484-2.878-3.543-6.687-2.9-10.449 0.244-1.439 0.727-2.805 1.414-4.048-1.42-0.025-2.842-0.29-4.211-0.799-0.662-0.247-1.307-0.551-1.917-0.903-2.644-1.527-4.649-3.957-5.646-6.842-2.594-7.487-3.905-15.332-3.893-23.314 0.01-7.98 1.341-15.827 3.955-23.326 1.255-3.6 4.022-6.429 7.59-7.762zm59.31 18.628c-1.098 1.83-2.651 3.389-4.552 4.49-1.9 1.101-4.022 1.67-6.151 1.708 1.032 1.862 1.6 3.985 1.596 6.18-2e-3 2.197-0.575 4.321-1.612 6.187 2.129 0.033 4.249 0.596 6.146 1.691 1.897 1.096 3.446 2.65 4.539 4.478 1.098-1.83 2.651-3.39 4.551-4.49s4.023-1.67 6.153-1.707c-1.034-1.863-1.602-3.988-1.598-6.185 3e-3 -2.195 0.575-4.32 1.613-6.183-2.13-0.033-4.249-0.598-6.146-1.693-1.898-1.096-3.446-2.65-4.539-4.476zm6.57 16.17c-2.107 3.65-6.765 4.906-10.403 2.805-3.639-2.101-4.88-6.762-2.773-10.412 2.107-3.649 6.765-4.905 10.403-2.804 3.638 2.1 4.88 6.762 2.773 10.411zm-13.42 8.029c2.52 1.456 4.083 4.171 4.08 7.088l-0.05 38.267c-4e-3 2.449-1.089 4.751-2.976 6.315-1.888 1.565-4.346 2.199-6.748 1.742-7.284-1.385-14.248-3.977-20.698-7.7-6.452-3.725-12.179-8.461-17.017-14.076-1.597-1.85-2.277-4.297-1.865-6.715 0.411-2.416 1.861-4.506 3.98-5.734l33.115-19.177c2.526-1.46 5.659-1.464 8.179-0.01zm58.841 24.785c-0.405-2.418-1.851-4.503-3.968-5.725l-33.065-19.088c-2.52-1.455-5.651-1.451-8.176 0.011-2.524 1.461-4.095 4.182-4.1 7.097l-0.05 38.268c-3e-3 2.451 1.074 4.749 2.957 6.307 0.352 0.29 0.729 0.554 1.124 0.782 1.697 0.98 3.694 1.314 5.621 0.942 7.282-1.401 14.254-4.01 20.719-7.754 6.461-3.742 12.199-8.493 17.054-14.121 1.601-1.856 2.287-4.306 1.884-6.719zm-102.78-62.777 33.064 19.09c2.521 1.455 4.083 4.172 4.079 7.088-4e-3 2.917-1.575 5.637-4.098 7.098l-33.115 19.179c-2.12 1.229-4.65 1.445-6.942 0.592-0.426-0.159-0.841-0.354-1.234-0.581-1.699-0.981-2.989-2.542-3.63-4.397-2.429-7.012-3.653-14.354-3.643-21.821 0.01-7.468 1.255-14.814 3.701-21.83 0.806-2.316 2.584-4.134 4.877-4.99 2.294-0.859 4.824-0.65 6.941 0.572zm113.42 4.252c-0.642-1.854-1.93-3.416-3.627-4.397-0.394-0.228-0.81-0.422-1.236-0.582-2.293-0.852-4.822-0.636-6.943 0.592l-33.114 19.178c-2.524 1.462-4.094 4.182-4.098 7.098-5e-3 2.918 1.559 5.633 4.08 7.088l33.063 19.091c2.116 1.222 4.645 1.431 6.94 0.572 2.294-0.857 4.072-2.676 4.877-4.991 2.447-7.018 3.691-14.361 3.702-21.829 0.01-7.466-1.217-14.807-3.644-21.82zm-69.382-42.361c0.393 0.228 0.771 0.491 1.123 0.781 1.884 1.557 2.962 3.857 2.96 6.307l-0.052 38.268c-5e-3 2.915-1.575 5.635-4.099 7.097s-5.658 1.467-8.179 0.012l-33.064-19.09c-2.116-1.222-3.563-3.307-3.967-5.723-0.404-2.415 0.284-4.864 1.884-6.719 4.854-5.628 10.592-10.378 17.054-14.121 6.464-3.743 13.435-6.353 20.719-7.755 1.928-0.372 3.924-0.037 5.621 0.943zm39.955 6.725c6.455 3.727 12.181 8.462 17.018 14.074 1.596 1.852 2.276 4.299 1.865 6.716-0.41 2.416-1.86 4.506-3.981 5.734l-33.116 19.178c-2.524 1.459-5.657 1.463-8.177 9e-3 -2.519-1.455-4.084-4.171-4.081-7.086l0.051-38.268c4e-3 -2.452 1.088-4.752 2.976-6.315 1.886-1.564 4.346-2.199 6.748-1.743 7.281 1.384 14.245 3.976 20.697 7.701z" clip-rule="evenodd" fill="#fff" fill-opacity=".21" fill-rule="evenodd"/> <path d="m325.96 84.713c1.771-0.6633 3.615-1.0109 5.454-1.0469-0.887-1.6121-1.509-3.3813-1.821-5.248-0.817-4.8628 0.568-9.8001 3.794-13.544 6.723-7.7923 14.668-14.372 23.614-19.553 8.95-5.1843 18.603-8.7947 28.689-10.736 3.879-0.7496 7.903-0.0733 11.327 1.9033 0.783 0.4522 1.542 0.9789 2.254 1.5658 1.461 1.2053 2.68 2.6327 3.629 4.2118 0.952-1.5802 2.175-3.0084 3.635-4.2164 3.797-3.1481 8.753-4.4296 13.597-3.5124 10.087 1.9201 19.729 5.5077 28.659 10.664 8.932 5.1568 16.86 11.713 23.561 19.486 3.219 3.7379 4.588 8.6718 3.759 13.54-0.315 1.8665-0.94 3.6354-1.833 5.25 1.839 0.0328 3.683 0.3738 5.454 1.0322 0.873 0.3283 1.707 0.7213 2.489 1.1726l3e-3 0.0016c3.423 1.9786 6.018 5.127 7.309 8.8633 3.362 9.7128 5.059 19.877 5.045 30.205-0.014 10.345-1.739 20.516-5.126 30.227-1.622 4.662-5.205 8.332-9.832 10.06-1.773 0.665-3.616 1.012-5.454 1.048 0.887 1.611 1.508 3.38 1.819 5.248 0.814 4.868-0.571 9.805-3.796 13.544-6.72 7.792-14.664 14.369-23.612 19.549-8.946 5.181-18.598 8.794-28.687 10.738-3.881 0.75-7.904 0.075-11.328-1.902-0.782-0.452-1.54-0.978-2.253-1.567-1.461-1.207-2.681-2.634-3.629-4.215-0.952 1.58-2.172 3.007-3.63 4.217-3.805 3.153-8.763 4.432-13.604 3.511-10.088-1.919-19.73-5.506-28.657-10.66-8.931-5.157-16.859-11.713-23.562-19.488-3.219-3.729-4.591-8.665-3.758-13.539 0.317-1.865 0.943-3.635 1.833-5.245-1.84-0.033-3.684-0.376-5.457-1.036-0.858-0.321-1.694-0.715-2.484-1.171-3.427-1.978-6.024-5.126-7.316-8.865-3.361-9.702-5.059-19.866-5.045-30.209 0.013-10.341 1.739-20.509 5.126-30.226 1.626-4.6647 5.211-8.3311 9.834-10.058zm76.852 24.137c-1.422 2.372-3.434 4.392-5.898 5.818-2.462 1.427-5.211 2.164-7.97 2.213 1.337 2.413 2.073 5.163 2.069 8.008-4e-3 2.847-0.747 5.599-2.09 8.018 2.759 0.042 5.506 0.772 7.964 2.191s4.465 3.433 5.881 5.802c1.423-2.372 3.435-4.393 5.898-5.819 2.462-1.425 5.213-2.163 7.972-2.211-1.339-2.415-2.075-5.168-2.07-8.014 4e-3 -2.844 0.745-5.598 2.089-8.013-2.759-0.042-5.505-0.774-7.962-2.193-2.46-1.42-4.466-3.433-5.883-5.8zm8.514 20.953c-2.731 4.729-8.766 6.356-13.48 3.634-4.715-2.722-6.323-8.762-3.593-13.491s8.765-6.356 13.48-3.634c4.714 2.722 6.323 8.762 3.593 13.491zm-17.39 10.404c3.266 1.886 5.291 5.404 5.287 9.184l-0.065 49.585c-5e-3 3.174-1.411 6.157-3.856 8.184-2.446 2.027-5.631 2.849-8.743 2.256-9.439-1.794-18.463-5.152-26.821-9.978-8.36-4.826-15.78-10.963-22.05-18.238-2.069-2.398-2.95-5.568-2.417-8.701 0.533-3.131 2.412-5.839 5.158-7.43l42.91-24.849c3.273-1.893 7.332-1.898 10.597-0.013zm76.245 32.115c-0.524-3.132-2.398-5.835-5.141-7.418l-42.845-24.734c-3.265-1.885-7.323-1.879-10.595 0.014-3.27 1.894-5.305 5.419-5.312 9.197l-0.065 49.586c-4e-3 3.176 1.392 6.154 3.832 8.173 0.456 0.376 0.945 0.718 1.456 1.013 2.2 1.27 4.786 1.702 7.284 1.221 9.436-1.816 18.47-5.197 26.847-10.048 8.372-4.848 15.807-11.005 22.098-18.297 2.074-2.406 2.964-5.58 2.441-8.707zm-133.18-81.344 42.844 24.736c3.266 1.886 5.291 5.405 5.286 9.185-6e-3 3.779-2.041 7.304-5.31 9.197l-42.909 24.851c-2.748 1.592-6.027 1.872-8.996 0.768-0.552-0.207-1.09-0.459-1.6-0.754-2.201-1.271-3.872-3.293-4.702-5.697-3.148-9.086-4.735-18.6-4.722-28.275 0.014-9.677 1.626-19.196 4.797-28.286 1.044-3.0015 3.347-5.3566 6.319-6.466 2.972-1.114 6.251-0.8422 8.993 0.7412zm146.97 5.5087c-0.832-2.4025-2.501-4.4257-4.7-5.6971-0.511-0.295-1.05-0.5463-1.602-0.7541-2.97-1.1041-6.247-0.8247-8.996 0.7673l-42.908 24.85c-3.271 1.894-5.306 5.419-5.31 9.197-7e-3 3.781 2.02 7.299 5.286 9.185l42.842 24.737c2.742 1.584 6.02 1.854 8.993 0.742 2.972-1.111 5.276-3.469 6.32-6.467 3.17-9.094 4.783-18.61 4.797-28.286 0.013-9.674-1.577-19.187-4.722-28.274zm-89.904-54.889c0.51 0.2943 0.999 0.6355 1.455 1.0112 2.441 2.0174 3.839 4.9978 3.836 8.1733l-0.068 49.586c-5e-3 3.777-2.041 7.302-5.311 9.197-3.27 1.893-7.331 1.9-10.597 0.014l-42.844-24.736c-2.742-1.5834-4.617-4.2859-5.14-7.4159-0.525-3.1292 0.367-6.3024 2.441-8.7065 6.29-7.2925 13.724-13.447 22.098-18.297 8.375-4.8508 17.408-8.232 26.848-10.049 2.497-0.4825 5.083-0.0475 7.282 1.2225zm51.773 8.7137c8.364 4.8289 15.784 10.965 22.052 18.236 2.068 2.4005 2.949 5.5716 2.416 8.7028-0.531 3.1311-2.41 5.8394-5.159 7.4308l-42.91 24.849c-3.27 1.892-7.331 1.897-10.595 0.012-3.265-1.885-5.292-5.405-5.288-9.182l0.065-49.586c6e-3 -3.1771 1.41-6.1583 3.856-8.1828 2.445-2.0266 5.631-2.8501 8.745-2.2589 9.433 1.794 18.457 5.1519 26.818 9.979z" clip-rule="evenodd" fill="#fff" fill-opacity=".21" fill-rule="evenodd"/> <path d="m112.44 732.37c4.164-1.559 8.496-2.376 12.819-2.461-2.084-3.789-3.546-7.948-4.279-12.336-1.92-11.431 1.334-23.037 8.918-31.837 15.804-18.317 34.48-33.783 55.509-45.962 21.038-12.187 43.728-20.674 67.437-25.237 9.118-1.762 18.579-0.172 26.626 4.474 1.842 1.063 3.625 2.301 5.299 3.681 3.433 2.833 6.3 6.189 8.53 9.9 2.238-3.714 5.113-7.071 8.545-9.911 8.926-7.4 20.576-10.412 31.963-8.256 23.71 4.513 46.375 12.946 67.367 25.066 20.996 12.122 39.631 27.534 55.384 45.804 7.567 8.787 10.784 20.385 8.836 31.828-0.741 4.387-2.211 8.545-4.308 12.341 4.323 0.077 8.656 0.878 12.819 2.426 2.053 0.772 4.014 1.696 5.851 2.756l7e-3 4e-3c8.047 4.651 14.146 12.052 17.182 20.835 7.901 22.832 11.893 46.724 11.859 71.002-0.034 24.317-4.088 48.225-12.051 71.053-3.811 10.958-12.233 19.585-23.11 23.647-4.169 1.562-8.501 2.378-12.821 2.464 2.085 3.786 3.544 7.946 4.276 12.336 1.913 11.443-1.343 23.047-8.923 31.838-15.798 18.315-34.471 33.778-55.504 45.948-21.03 12.18-43.718 20.68-67.433 25.25-9.124 1.76-18.581 0.17-26.628-4.47-1.84-1.07-3.621-2.3-5.297-3.69-3.434-2.84-6.302-6.19-8.53-9.91-2.239 3.72-5.107 7.07-8.535 9.92-8.944 7.41-20.597 10.41-31.977 8.25-23.714-4.51-46.378-12.94-67.362-25.06-20.996-12.12-39.631-27.533-55.387-45.809-7.566-8.765-10.791-20.368-8.835-31.825 0.746-4.383 2.217-8.544 4.309-12.33-4.324-0.078-8.658-0.884-12.826-2.433-2.017-0.755-3.982-1.682-5.839-2.754-8.0554-4.65-14.162-12.05-17.199-20.839-7.9005-22.805-11.892-46.699-11.858-71.012 0.031-24.306 4.0864-48.21 12.048-71.049 3.8222-10.965 12.251-19.584 23.118-23.642zm180.65 56.737c-3.345 5.577-8.073 10.324-13.866 13.676-5.787 3.355-12.25 5.089-18.733 5.202 3.142 5.673 4.872 12.139 4.861 18.825-8e-3 6.693-1.754 13.162-4.912 18.847 6.487 0.1 12.943 1.815 18.721 5.151 5.779 3.337 10.496 8.071 13.825 13.639 3.344-5.576 8.075-10.328 13.864-13.678 5.786-3.35 12.254-5.085 18.739-5.199-3.148-5.675-4.877-12.147-4.866-18.838 9e-3 -6.686 1.752-13.157 4.912-18.835-6.487-0.1-12.942-1.819-18.718-5.154-5.782-3.338-10.498-8.072-13.827-13.636zm20.011 49.255c-6.418 11.116-20.604 14.941-31.687 8.543-11.082-6.399-14.863-20.597-8.445-31.713 6.418-11.117 20.605-14.941 31.687-8.543s14.863 20.597 8.445 31.713zm-40.876 24.456c7.676 4.432 12.437 12.703 12.428 21.588l-0.154 116.56c-0.012 7.46-3.316 14.47-9.063 19.24-5.749 4.76-13.238 6.7-20.553 5.3-22.187-4.22-43.401-12.11-63.046-23.45-19.652-11.348-37.095-25.772-51.833-42.874-4.863-5.637-6.935-13.089-5.681-20.455 1.252-7.359 5.67-13.724 12.124-17.464l100.87-58.412c7.693-4.448 17.236-4.461 24.911-0.03zm179.22 75.491c-1.232-7.363-5.637-13.716-12.084-17.438l-100.72-58.14c-7.675-4.432-17.213-4.418-24.904 0.033-7.688 4.452-12.472 12.738-12.487 21.619l-0.152 116.56c-0.01 7.46 3.271 14.47 9.007 19.21 1.072 0.89 2.22 1.69 3.421 2.38 5.172 2.99 11.252 4 17.122 2.87 22.181-4.27 43.417-12.21 63.109-23.62 19.679-11.392 37.158-25.865 51.944-43.007 4.877-5.655 6.968-13.117 5.739-20.467zm-313.07-191.21 100.71 58.145c7.679 4.434 12.438 12.707 12.426 21.591-0.013 8.884-4.797 17.17-12.482 21.619l-100.86 58.418c-6.459 3.742-14.166 4.4-21.147 1.804-1.297-0.485-2.56-1.079-3.759-1.771-5.174-2.987-9.103-7.742-11.055-13.393-7.3982-21.358-11.129-43.722-11.098-66.465 0.0321-22.747 3.8219-45.122 11.275-66.491 2.455-7.055 7.869-12.592 14.854-15.199 6.988-2.619 14.694-1.98 21.14 1.742zm345.48 12.949c-1.956-5.648-5.877-10.403-11.047-13.392-1.201-0.693-2.468-1.284-3.765-1.773-6.983-2.595-14.685-1.938-21.146 1.804l-100.86 58.414c-7.689 4.453-12.473 12.739-12.482 21.619-0.016 8.889 4.748 17.159 12.425 21.591l100.71 58.15c6.447 3.722 14.151 4.358 21.14 1.742 6.987-2.61 12.402-8.152 14.855-15.202 7.453-21.376 11.244-43.744 11.276-66.49 0.032-22.74-3.706-45.101-11.1-66.463zm-211.33-129.03c1.199 0.692 2.347 1.494 3.42 2.377 5.738 4.742 9.023 11.748 9.016 19.213l-0.159 116.56c-0.013 8.877-4.797 17.165-12.484 21.618-7.688 4.451-17.233 4.468-24.912 0.034l-100.71-58.145c-6.447-3.722-10.854-10.075-12.083-17.432-1.233-7.356 0.863-14.815 5.737-20.466 14.786-17.142 32.262-31.609 51.945-43.01 19.689-11.403 40.922-19.351 63.111-23.623 5.871-1.134 11.949-0.111 17.119 2.874zm121.7 20.483c19.661 11.351 37.102 25.774 51.836 42.866 4.862 5.643 6.933 13.097 5.68 20.458-1.247 7.36-5.666 13.726-12.126 17.467l-100.87 58.413c-7.687 4.446-17.232 4.458-24.905 0.027-7.676-4.431-12.44-12.704-12.431-21.583l0.153-116.56c0.013-7.469 3.315-14.477 9.064-19.236 5.748-4.763 13.238-6.699 20.557-5.309 22.175 4.217 43.387 12.11 63.04 23.457z" clip-rule="evenodd" fill="#fff" fill-opacity=".21" fill-rule="evenodd"/>
</svg>