<!-- Generator: Adobe Illustrator 13.0.0, SVG Export Plug-In . SVG Version: 6.00 Build 14948) -->
<!DOCTYPE svg PUBLIC '-//W3C//DTD SVG 1.1//EN' 'http://www.w3.org/Graphics/SVG/1.1/DTD/svg11.dtd'>
<svg id="Calque_1" width="1582.3px" height="1109.5px" enable-background="new 0 0 1582.341 1109.471" version="1.1" viewBox="0 0 1582.3 1109.5" xml:space="preserve" xmlns="http://www.w3.org/2000/svg"> <path d="m222.94 19.284 14.792 6.61-14.193 31.757c-0.577 1.292 2e-3 2.806 1.294 3.384l17.596 7.864c1.291 0.577 2.806-3e-3 3.383-1.294l14.193-31.756 14.791 6.611c0.946 0.422 2.052 0.234 2.805-0.478 0.753-0.711 1.003-1.806 0.634-2.773l-14.322-37.561c-0.241-0.634-0.728-1.148-1.348-1.425-0.621-0.278-1.326-0.297-1.961-0.054l-37.537 14.385c-0.966 0.371-1.615 1.287-1.643 2.322s0.57 1.986 1.516 2.408zm-38.376 68.068c0.241 0.634 0.728 1.148 1.348 1.425 0.621 0.278 1.326 0.297 1.961 0.054l37.537-14.385c0.966-0.371 1.615-1.287 1.643-2.322s-0.569-1.985-1.516-2.408l-14.792-6.61 14.192-31.757c0.578-1.292-1e-3 -2.806-1.293-3.384l-17.596-7.864c-1.291-0.577-2.806 3e-3 -3.384 1.293l-14.192 31.757-14.791-6.611c-0.946-0.422-2.052-0.234-2.805 0.478-0.753 0.711-1.003 1.806-0.634 2.773l14.322 37.561zm265.15-68.068 14.792 6.61-14.193 31.757c-0.577 1.292 2e-3 2.806 1.294 3.384l17.596 7.864c1.291 0.577 2.806-3e-3 3.383-1.294l14.193-31.756 14.791 6.611c0.946 0.422 2.052 0.234 2.805-0.478 0.753-0.711 1.003-1.806 0.634-2.773l-14.322-37.561c-0.241-0.634-0.728-1.148-1.348-1.425-0.621-0.278-1.326-0.297-1.961-0.054l-37.537 14.385c-0.966 0.371-1.615 1.287-1.643 2.322s0.57 1.986 1.516 2.408zm-38.376 68.068c0.241 0.634 0.728 1.148 1.348 1.425 0.621 0.278 1.326 0.297 1.961 0.054l37.537-14.385c0.966-0.371 1.615-1.287 1.643-2.322s-0.569-1.985-1.516-2.408l-14.792-6.61 14.192-31.757c0.578-1.292-1e-3 -2.806-1.293-3.384l-17.596-7.864c-1.291-0.577-2.806 3e-3 -3.384 1.293l-14.192 31.757-14.791-6.611c-0.946-0.422-2.052-0.234-2.805 0.478-0.753 0.711-1.003 1.806-0.634 2.773l14.322 37.561zm-152.62 44.227c-0.946-0.422-2.052-0.234-2.805 0.478-0.753 0.711-1.003 1.806-0.634 2.773l14.321 37.562c0.241 0.634 0.728 1.148 1.348 1.425 0.621 0.278 1.326 0.297 1.961 0.054l37.537-14.385c0.966-0.371 1.615-1.287 1.643-2.322s-0.569-1.985-1.516-2.408l-14.792-6.61 14.192-31.757c0.578-1.292-1e-3 -2.806-1.293-3.384l-17.596-7.864c-1.291-0.577-2.806 3e-3 -3.384 1.293l-14.192 31.757-14.79-6.612zm49.259-27.255 14.792 6.61-14.193 31.757c-0.577 1.292 2e-3 2.806 1.294 3.384l17.596 7.864c1.291 0.577 2.806-3e-3 3.383-1.294l14.193-31.756 14.791 6.611c0.946 0.422 2.052 0.234 2.805-0.478 0.753-0.711 1.003-1.806 0.634-2.773l-14.321-37.562c-0.241-0.634-0.728-1.148-1.348-1.425-0.621-0.278-1.326-0.297-1.961-0.054l-37.538 14.386c-0.966 0.371-1.615 1.287-1.643 2.322s0.57 1.985 1.516 2.408zm226.77 0 14.792 6.61-14.193 31.757c-0.577 1.292 2e-3 2.806 1.294 3.384l17.596 7.864c1.291 0.577 2.806-3e-3 3.383-1.294l14.193-31.756 14.791 6.611c0.946 0.422 2.052 0.234 2.805-0.478 0.753-0.711 1.003-1.806 0.634-2.773l-14.321-37.562c-0.241-0.634-0.728-1.148-1.348-1.425-0.621-0.278-1.326-0.297-1.961-0.054l-37.537 14.385c-0.966 0.371-1.615 1.287-1.643 2.322-0.029 1.036 0.569 1.986 1.515 2.409zm-49.258 27.255c-0.946-0.422-2.052-0.234-2.805 0.478-0.753 0.711-1.003 1.806-0.634 2.773l14.321 37.562c0.241 0.634 0.728 1.148 1.348 1.425 0.621 0.278 1.326 0.297 1.961 0.054l37.537-14.385c0.966-0.371 1.615-1.287 1.643-2.322s-0.569-1.985-1.516-2.408l-14.792-6.61 14.192-31.757c0.578-1.292-1e-3 -2.806-1.293-3.384l-17.596-7.864c-1.291-0.577-2.806 3e-3 -3.384 1.293l-14.192 31.757-14.79-6.612zm190.99-112.3 14.792 6.61-14.193 31.757c-0.577 1.292 2e-3 2.806 1.294 3.384l17.596 7.864c1.291 0.577 2.806-3e-3 3.383-1.294l14.193-31.756 14.791 6.611c0.946 0.422 2.052 0.234 2.805-0.478 0.753-0.711 1.003-1.806 0.634-2.773l-14.323-37.561c-0.241-0.634-0.728-1.148-1.348-1.425-0.621-0.278-1.326-0.297-1.961-0.054l-37.537 14.385c-0.966 0.371-1.615 1.287-1.643 2.322-0.027 1.035 0.571 1.986 1.517 2.408zm-38.376 68.068c0.241 0.634 0.728 1.148 1.348 1.425 0.621 0.278 1.326 0.297 1.961 0.054l37.537-14.385c0.966-0.371 1.615-1.287 1.643-2.322s-0.569-1.985-1.516-2.408l-14.792-6.61 14.192-31.757c0.578-1.292-1e-3 -2.806-1.293-3.384l-17.596-7.864c-1.291-0.577-2.806 3e-3 -3.384 1.293l-14.192 31.757-14.791-6.611c-0.946-0.422-2.052-0.234-2.805 0.478-0.753 0.711-1.003 1.806-0.634 2.773l14.322 37.561zm265.15-68.068 14.792 6.61-14.193 31.757c-0.577 1.292 2e-3 2.806 1.294 3.384l17.596 7.864c1.291 0.577 2.806-3e-3 3.383-1.294l14.193-31.756 14.791 6.611c0.946 0.422 2.052 0.234 2.805-0.478 0.753-0.711 1.003-1.806 0.634-2.773l-14.322-37.561c-0.241-0.634-0.728-1.148-1.348-1.425-0.621-0.278-1.326-0.297-1.961-0.054l-37.537 14.385c-0.966 0.371-1.615 1.287-1.643 2.322s0.57 1.986 1.516 2.408zm-38.376 68.068c0.241 0.634 0.728 1.148 1.348 1.425 0.621 0.278 1.326 0.297 1.961 0.054l37.537-14.385c0.966-0.371 1.615-1.287 1.643-2.322s-0.569-1.985-1.516-2.408l-14.792-6.61 14.192-31.757c0.578-1.292-1e-3 -2.806-1.293-3.384l-17.596-7.864c-1.291-0.577-2.806 3e-3 -3.384 1.293l-14.192 31.757-14.79-6.611c-0.946-0.422-2.052-0.234-2.805 0.478-0.753 0.711-1.003 1.806-0.634 2.773l14.321 37.561zm-152.62 44.227c-0.946-0.422-2.052-0.234-2.805 0.478-0.753 0.711-1.003 1.806-0.634 2.773l14.321 37.562c0.241 0.634 0.728 1.148 1.348 1.425 0.621 0.278 1.326 0.297 1.961 0.054l37.537-14.385c0.966-0.371 1.615-1.287 1.643-2.322s-0.569-1.985-1.516-2.408l-14.792-6.61 14.192-31.757c0.578-1.292-1e-3 -2.806-1.293-3.384l-17.596-7.864c-1.291-0.577-2.806 3e-3 -3.384 1.293l-14.192 31.757-14.79-6.612zm49.259-27.255 14.792 6.61-14.193 31.757c-0.577 1.292 2e-3 2.806 1.294 3.384l17.596 7.864c1.291 0.577 2.806-3e-3 3.383-1.294l14.193-31.756 14.791 6.611c0.946 0.422 2.052 0.234 2.805-0.478 0.753-0.711 1.003-1.806 0.634-2.773l-14.321-37.562c-0.241-0.634-0.728-1.148-1.348-1.425-0.621-0.278-1.326-0.297-1.961-0.054l-37.537 14.385c-0.966 0.371-1.615 1.287-1.643 2.322-0.029 1.036 0.569 1.986 1.515 2.409zm177.51 27.255c-0.946-0.422-2.052-0.234-2.805 0.478-0.753 0.711-1.003 1.806-0.634 2.773l14.321 37.562c0.241 0.634 0.728 1.148 1.348 1.425 0.621 0.278 1.326 0.297 1.961 0.054l37.537-14.385c0.966-0.371 1.615-1.287 1.643-2.322s-0.569-1.985-1.516-2.408l-14.792-6.61 14.192-31.757c0.578-1.292-1e-3 -2.806-1.293-3.384l-17.596-7.864c-1.291-0.577-2.806 3e-3 -3.384 1.293l-14.191 31.756-14.791-6.611zm49.258-27.255 14.792 6.61-14.193 31.757c-0.577 1.292 2e-3 2.806 1.294 3.384l17.596 7.864c1.291 0.577 2.806-3e-3 3.383-1.294l14.193-31.756 14.791 6.611c0.946 0.422 2.052 0.234 2.805-0.478 0.753-0.711 1.003-1.806 0.634-2.773l-14.321-37.562c-0.241-0.634-0.728-1.148-1.348-1.425-0.621-0.278-1.326-0.297-1.961-0.054l-37.537 14.385c-0.966 0.371-1.615 1.287-1.643 2.322-0.029 1.036 0.569 1.986 1.515 2.409zm103.36-16.972c0.241 0.634 0.728 1.148 1.348 1.425 0.621 0.278 1.326 0.297 1.961 0.054l37.537-14.385c0.966-0.371 1.615-1.287 1.643-2.322s-0.569-1.985-1.516-2.408l-14.792-6.61 14.192-31.757c0.578-1.292-1e-3 -2.806-1.293-3.384l-17.596-7.864c-1.291-0.577-2.806 3e-3 -3.384 1.293l-14.192 31.757-14.791-6.611c-0.946-0.422-2.052-0.234-2.805 0.478-0.753 0.711-1.003 1.806-0.634 2.773l14.322 37.561zm38.376-68.068 14.792 6.61-14.193 31.757c-0.577 1.292 2e-3 2.806 1.294 3.384l17.596 7.864c1.291 0.577 2.806-3e-3 3.383-1.294l14.193-31.756 14.791 6.611c0.946 0.422 2.052 0.234 2.805-0.478 0.753-0.711 1.003-1.806 0.634-2.773l-14.321-37.562c-0.241-0.634-0.728-1.148-1.348-1.425-0.621-0.278-1.326-0.297-1.961-0.054l-37.537 14.385c-0.966 0.371-1.615 1.287-1.643 2.322-0.029 1.036 0.569 1.987 1.515 2.409zm188.4 68.068c0.241 0.634 0.728 1.148 1.348 1.425 0.621 0.278 1.326 0.297 1.961 0.054l37.537-14.385c0.966-0.371 1.615-1.287 1.643-2.322s-0.569-1.985-1.516-2.408l-14.792-6.61 14.192-31.757c0.578-1.292-1e-3 -2.806-1.293-3.384l-17.596-7.864c-1.291-0.577-2.806 3e-3 -3.384 1.293l-14.192 31.757-14.791-6.611c-0.946-0.422-2.052-0.234-2.805 0.478-0.753 0.711-1.003 1.806-0.634 2.773l14.322 37.561zm38.376-68.068 14.792 6.61-14.193 31.757c-0.577 1.292 2e-3 2.806 1.294 3.384l17.596 7.864c1.291 0.577 2.806-3e-3 3.383-1.294l14.193-31.756 14.791 6.611c0.946 0.422 2.052 0.234 2.805-0.478 0.753-0.711 1.003-1.806 0.634-2.773l-14.321-37.562c-0.241-0.634-0.728-1.148-1.348-1.425-0.621-0.278-1.326-0.297-1.961-0.054l-37.537 14.385c-0.966 0.371-1.615 1.287-1.643 2.322-0.029 1.036 0.569 1.987 1.515 2.409zm-141.73 85.04 14.792 6.61-14.193 31.757c-0.577 1.292 2e-3 2.806 1.294 3.384l17.596 7.864c1.291 0.577 2.806-3e-3 3.383-1.294l14.193-31.756 14.791 6.611c0.946 0.422 2.052 0.234 2.805-0.478 0.753-0.711 1.003-1.806 0.634-2.773l-14.321-37.562c-0.241-0.634-0.728-1.148-1.348-1.425-0.621-0.278-1.326-0.297-1.961-0.054l-37.537 14.385c-0.966 0.371-1.615 1.287-1.643 2.322-0.029 1.036 0.569 1.986 1.515 2.409zm-49.259 27.255c-0.946-0.422-2.052-0.234-2.805 0.478-0.753 0.711-1.003 1.806-0.634 2.773l14.321 37.562c0.241 0.634 0.728 1.148 1.348 1.425 0.621 0.278 1.326 0.297 1.961 0.054l37.537-14.385c0.966-0.371 1.615-1.287 1.643-2.322s-0.569-1.985-1.516-2.408l-14.792-6.61 14.192-31.757c0.578-1.292-1e-3 -2.806-1.293-3.384l-17.596-7.864c-1.291-0.577-2.806 3e-3 -3.384 1.293l-14.192 31.757-14.79-6.612zm276.03-27.255 14.792 6.61-14.193 31.757c-0.577 1.292 2e-3 2.806 1.294 3.384l17.596 7.864c1.291 0.577 2.806-3e-3 3.383-1.294l14.193-31.756 14.791 6.611c0.946 0.422 2.052 0.234 2.805-0.478 0.753-0.711 1.003-1.806 0.634-2.773l-14.321-37.562c-0.241-0.634-0.728-1.148-1.348-1.425-0.621-0.278-1.326-0.297-1.961-0.054l-37.537 14.385c-0.966 0.371-1.615 1.287-1.643 2.322-0.029 1.036 0.569 1.986 1.515 2.409zm-49.258 27.255c-0.946-0.422-2.052-0.234-2.805 0.478-0.753 0.711-1.003 1.806-0.634 2.773l14.321 37.562c0.241 0.634 0.728 1.148 1.348 1.425 0.621 0.278 1.326 0.297 1.961 0.054l37.537-14.385c0.966-0.371 1.615-1.287 1.643-2.322s-0.569-1.985-1.516-2.408l-14.792-6.61 14.192-31.757c0.578-1.292-1e-3 -2.806-1.293-3.384l-17.596-7.864c-1.291-0.577-2.806 3e-3 -3.384 1.293l-14.192 31.757-14.79-6.612zm-1293.1 125.85c0.241 0.634 0.728 1.148 1.348 1.425 0.621 0.278 1.326 0.297 1.961 0.054l37.537-14.385c0.966-0.371 1.615-1.287 1.643-2.322s-0.569-1.985-1.516-2.408l-14.792-6.61 14.192-31.757c0.578-1.292-1e-3 -2.806-1.293-3.384l-17.596-7.864c-1.291-0.577-2.806 3e-3 -3.384 1.293l-14.192 31.757-14.791-6.611c-0.946-0.422-2.052-0.234-2.805 0.478-0.753 0.711-1.003 1.806-0.634 2.773l14.322 37.561zm38.376-68.067 14.792 6.61-14.193 31.757c-0.577 1.292 2e-3 2.806 1.294 3.384l17.596 7.864c1.291 0.577 2.806-3e-3 3.383-1.294l14.193-31.756 14.791 6.611c0.946 0.422 2.052 0.234 2.805-0.478 0.753-0.711 1.003-1.806 0.634-2.773l-14.321-37.562c-0.241-0.634-0.728-1.148-1.348-1.425-0.621-0.278-1.326-0.297-1.961-0.054l-37.537 14.385c-0.966 0.371-1.615 1.287-1.643 2.322-0.029 1.036 0.569 1.986 1.515 2.409zm229.37 50.431-14.792-6.61 14.192-31.757c0.578-1.292-1e-3 -2.806-1.293-3.384l-17.596-7.864c-1.291-0.577-2.806 3e-3 -3.384 1.293l-14.192 31.757-14.791-6.611c-0.946-0.422-2.052-0.234-2.805 0.478-0.753 0.711-1.003 1.806-0.634 2.773l14.322 37.561c0.241 0.634 0.728 1.148 1.348 1.425 0.621 0.278 1.326 0.297 1.961 0.054l37.537-14.385c0.966-0.371 1.615-1.287 1.643-2.322s-0.57-1.985-1.516-2.408zm-2.597-50.431 14.792 6.61-14.193 31.757c-0.577 1.292 2e-3 2.806 1.294 3.384l17.596 7.864c1.291 0.577 2.806-3e-3 3.383-1.294l14.193-31.756 14.791 6.611c0.946 0.422 2.052 0.234 2.805-0.478 0.753-0.711 1.003-1.806 0.634-2.773l-14.321-37.562c-0.241-0.634-0.728-1.148-1.348-1.425-0.621-0.278-1.326-0.297-1.961-0.054l-37.537 14.385c-0.966 0.371-1.615 1.287-1.643 2.322-0.029 1.036 0.569 1.986 1.515 2.409zm-100.76 67.404c-0.241-0.634-0.728-1.148-1.348-1.425-0.621-0.278-1.326-0.297-1.961-0.054l-37.537 14.385c-0.966 0.371-1.615 1.287-1.643 2.322s0.569 1.985 1.516 2.408l14.792 6.61-14.193 31.757c-0.577 1.292 2e-3 2.806 1.294 3.384l17.596 7.864c1.291 0.577 2.806-3e-3 3.383-1.294l14.193-31.756 14.791 6.611c0.946 0.422 2.052 0.234 2.805-0.478 0.753-0.711 1.003-1.806 0.634-2.773l-14.322-37.561zm-61.249 19.745-14.192 31.757-14.791-6.611c-0.946-0.422-2.052-0.234-2.805 0.478-0.753 0.711-1.003 1.806-0.634 2.773l14.321 37.562c0.241 0.634 0.728 1.148 1.348 1.425 0.621 0.278 1.326 0.297 1.961 0.054l37.537-14.385c0.966-0.371 1.615-1.287 1.643-2.322s-0.569-1.985-1.516-2.408l-14.792-6.61 14.192-31.757c0.578-1.292-1e-3 -2.806-1.293-3.384l-17.596-7.864c-1.29-0.578-2.804 2e-3 -3.383 1.292zm226.77 0-14.192 31.757-14.791-6.611c-0.946-0.422-2.052-0.234-2.805 0.478-0.753 0.711-1.003 1.806-0.634 2.773l14.321 37.562c0.241 0.634 0.728 1.148 1.348 1.425 0.621 0.278 1.326 0.297 1.961 0.054l37.537-14.385c0.966-0.371 1.615-1.287 1.643-2.322s-0.569-1.985-1.516-2.408l-14.792-6.61 14.192-31.757c0.578-1.292-1e-3 -2.806-1.293-3.384l-17.596-7.864c-1.29-0.578-2.805 2e-3 -3.383 1.292zm61.248-19.745c-0.241-0.634-0.728-1.148-1.348-1.425-0.621-0.278-1.326-0.297-1.961-0.054l-37.537 14.385c-0.966 0.371-1.615 1.287-1.643 2.322s0.569 1.985 1.516 2.408l14.792 6.61-14.193 31.757c-0.577 1.292 2e-3 2.806 1.294 3.384l17.596 7.864c1.291 0.577 2.806-3e-3 3.383-1.294l14.193-31.756 14.791 6.611c0.946 0.422 2.052 0.234 2.805-0.478 0.753-0.711 1.003-1.806 0.634-2.773l-14.322-37.561zm100.76-67.404 14.792 6.61-14.193 31.757c-0.577 1.292 2e-3 2.806 1.294 3.384l17.596 7.864c1.291 0.577 2.806-3e-3 3.383-1.294l14.193-31.756 14.791 6.611c0.946 0.422 2.052 0.234 2.805-0.478 0.753-0.711 1.003-1.806 0.634-2.773l-14.321-37.562c-0.241-0.634-0.728-1.148-1.348-1.425-0.621-0.278-1.326-0.297-1.961-0.054l-37.537 14.385c-0.966 0.371-1.615 1.287-1.643 2.322-0.029 1.036 0.568 1.986 1.515 2.409zm2.596 50.431-14.792-6.61 14.192-31.757c0.578-1.292-1e-3 -2.806-1.293-3.384l-17.596-7.864c-1.291-0.577-2.806 3e-3 -3.384 1.293l-14.192 31.757-14.791-6.611c-0.946-0.422-2.052-0.234-2.805 0.478-0.753 0.711-1.003 1.806-0.634 2.773l14.321 37.562c0.241 0.634 0.728 1.148 1.348 1.425 0.621 0.278 1.326 0.297 1.961 0.054l37.537-14.385c0.966-0.371 1.615-1.287 1.643-2.322 0.029-1.036-0.568-1.986-1.515-2.409zm226.77 0-14.792-6.61 14.192-31.757c0.578-1.292-1e-3 -2.806-1.293-3.384l-17.596-7.864c-1.291-0.577-2.806 3e-3 -3.384 1.293l-14.192 31.757-14.791-6.611c-0.946-0.422-2.052-0.234-2.805 0.478-0.753 0.711-1.003 1.806-0.634 2.773l14.321 37.562c0.241 0.634 0.728 1.148 1.348 1.425 0.621 0.278 1.326 0.297 1.961 0.054l37.537-14.385c0.966-0.371 1.615-1.287 1.643-2.322 0.029-1.036-0.569-1.986-1.515-2.409zm-2.597-50.431 14.792 6.61-14.193 31.757c-0.577 1.292 2e-3 2.806 1.294 3.384l17.596 7.864c1.291 0.577 2.806-3e-3 3.383-1.294l14.193-31.756 14.791 6.611c0.946 0.422 2.052 0.234 2.805-0.478 0.753-0.711 1.003-1.806 0.634-2.773l-14.321-37.562c-0.241-0.634-0.728-1.148-1.348-1.425-0.621-0.278-1.326-0.297-1.961-0.054l-37.537 14.385c-0.966 0.371-1.615 1.287-1.643 2.322-0.029 1.036 0.569 1.986 1.515 2.409zm-162.01 87.149-14.192 31.757-14.791-6.611c-0.946-0.422-2.052-0.234-2.805 0.478-0.753 0.711-1.003 1.806-0.634 2.773l14.321 37.562c0.241 0.634 0.728 1.148 1.348 1.425 0.621 0.278 1.326 0.297 1.961 0.054l37.537-14.385c0.966-0.371 1.615-1.287 1.643-2.322s-0.569-1.985-1.516-2.408l-14.792-6.61 14.192-31.757c0.578-1.292-1e-3 -2.806-1.293-3.384l-17.596-7.864c-1.29-0.578-2.804 2e-3 -3.383 1.292zm61.248-19.745c-0.241-0.634-0.728-1.148-1.348-1.425-0.621-0.278-1.326-0.297-1.961-0.054l-37.537 14.385c-0.966 0.371-1.615 1.287-1.643 2.322s0.569 1.985 1.516 2.408l14.792 6.61-14.193 31.757c-0.577 1.292 2e-3 2.806 1.294 3.384l17.596 7.864c1.291 0.577 2.806-3e-3 3.383-1.294l14.193-31.756 14.791 6.611c0.946 0.422 2.052 0.234 2.805-0.478 0.753-0.711 1.003-1.806 0.634-2.773l-14.322-37.561zm226.77 0c-0.241-0.634-0.728-1.148-1.348-1.425-0.621-0.278-1.326-0.297-1.961-0.054l-37.537 14.385c-0.966 0.371-1.615 1.287-1.643 2.322s0.569 1.985 1.516 2.408l14.792 6.61-14.193 31.757c-0.577 1.292 2e-3 2.806 1.294 3.384l17.596 7.864c1.291 0.577 2.806-3e-3 3.383-1.294l14.193-31.756 14.791 6.611c0.946 0.422 2.052 0.234 2.805-0.478 0.753-0.711 1.003-1.806 0.634-2.773l-14.322-37.561zm-61.248 19.745-14.192 31.757-14.791-6.611c-0.946-0.422-2.052-0.234-2.805 0.478-0.753 0.711-1.003 1.806-0.634 2.773l14.321 37.562c0.241 0.634 0.728 1.148 1.348 1.425 0.621 0.278 1.326 0.297 1.961 0.054l37.537-14.385c0.966-0.371 1.615-1.287 1.643-2.322s-0.569-1.985-1.516-2.408l-14.792-6.61 14.192-31.757c0.578-1.292-1e-3 -2.806-1.293-3.384l-17.596-7.864c-1.29-0.578-2.805 2e-3 -3.383 1.292zm164.6-36.718-14.792-6.61 14.192-31.757c0.578-1.292-1e-3 -2.806-1.293-3.384l-17.596-7.864c-1.291-0.577-2.806 3e-3 -3.384 1.293l-14.192 31.757-14.791-6.611c-0.946-0.422-2.052-0.234-2.805 0.478-0.753 0.711-1.003 1.806-0.634 2.773l14.321 37.562c0.241 0.634 0.728 1.148 1.348 1.425 0.621 0.278 1.326 0.297 1.961 0.054l37.537-14.385c0.966-0.371 1.615-1.287 1.643-2.322 0.029-1.036-0.568-1.986-1.515-2.409zm-2.596-50.431 14.792 6.61-14.193 31.757c-0.577 1.292 2e-3 2.806 1.294 3.384l17.596 7.864c1.291 0.577 2.806-3e-3 3.383-1.294l14.193-31.756 14.791 6.611c0.946 0.422 2.052 0.234 2.805-0.478 0.753-0.711 1.003-1.806 0.634-2.773l-14.321-37.562c-0.241-0.634-0.728-1.148-1.348-1.425-0.621-0.278-1.326-0.297-1.961-0.054l-37.537 14.385c-0.966 0.371-1.615 1.287-1.643 2.322-0.029 1.036 0.568 1.986 1.515 2.409zm229.37 50.431-14.792-6.61 14.192-31.757c0.578-1.292-1e-3 -2.806-1.293-3.384l-17.596-7.864c-1.291-0.577-2.806 3e-3 -3.384 1.293l-14.192 31.757-14.791-6.611c-0.946-0.422-2.052-0.234-2.805 0.478-0.753 0.711-1.003 1.806-0.634 2.773l14.321 37.562c0.241 0.634 0.728 1.148 1.348 1.425 0.621 0.278 1.326 0.297 1.961 0.054l37.537-14.385c0.966-0.371 1.615-1.287 1.643-2.322 0.029-1.036-0.569-1.986-1.515-2.409zm-2.597-50.431 14.792 6.61-14.193 31.757c-0.577 1.292 2e-3 2.806 1.294 3.384l17.596 7.864c1.291 0.577 2.806-3e-3 3.383-1.294l14.193-31.756 14.791 6.611c0.946 0.422 2.052 0.234 2.805-0.478 0.753-0.711 1.003-1.806 0.634-2.773l-14.321-37.562c-0.241-0.634-0.728-1.148-1.348-1.425-0.621-0.278-1.326-0.297-1.961-0.054l-37.537 14.385c-0.966 0.371-1.615 1.287-1.643 2.322-0.029 1.036 0.569 1.986 1.515 2.409zm-100.76 67.404c-0.241-0.634-0.728-1.148-1.348-1.425-0.621-0.278-1.326-0.297-1.961-0.054l-37.537 14.385c-0.966 0.371-1.615 1.287-1.643 2.322s0.569 1.985 1.516 2.408l14.792 6.61-14.193 31.757c-0.577 1.292 2e-3 2.806 1.294 3.384l17.596 7.864c1.291 0.577 2.806-3e-3 3.383-1.294l14.193-31.756 14.791 6.611c0.946 0.422 2.052 0.234 2.805-0.478 0.753-0.711 1.003-1.806 0.634-2.773l-14.322-37.561zm-61.248 19.745-14.192 31.757-14.791-6.611c-0.946-0.422-2.052-0.234-2.805 0.478-0.753 0.711-1.003 1.806-0.634 2.773l14.321 37.562c0.241 0.634 0.728 1.148 1.348 1.425 0.621 0.278 1.326 0.297 1.961 0.054l37.537-14.385c0.966-0.371 1.615-1.287 1.643-2.322s-0.569-1.985-1.516-2.408l-14.792-6.61 14.192-31.757c0.578-1.292-1e-3 -2.806-1.293-3.384l-17.596-7.864c-1.29-0.578-2.804 2e-3 -3.383 1.292zm226.77 0-14.192 31.757-14.791-6.611c-0.946-0.422-2.052-0.234-2.805 0.478-0.753 0.711-1.003 1.806-0.634 2.773l14.321 37.562c0.241 0.634 0.728 1.148 1.348 1.425 0.621 0.278 1.326 0.297 1.961 0.054l37.537-14.385c0.966-0.371 1.615-1.287 1.643-2.322s-0.569-1.985-1.516-2.408l-14.792-6.61 14.192-31.757c0.578-1.292-1e-3 -2.806-1.293-3.384l-17.596-7.864c-1.29-0.578-2.805 2e-3 -3.383 1.292zm35.067 4.501-14.193 31.757c-0.577 1.292 2e-3 2.806 1.294 3.384l17.596 7.864c1.291 0.577 2.806-3e-3 3.383-1.294l14.193-31.756 14.791 6.611c0.946 0.422 2.052 0.234 2.805-0.478 0.753-0.711 1.003-1.806 0.634-2.773l-14.321-37.562c-0.241-0.634-0.728-1.148-1.348-1.425-0.621-0.278-1.326-0.297-1.961-0.054l-37.537 14.385c-0.966 0.371-1.615 1.287-1.643 2.322s0.569 1.985 1.516 2.408l14.791 6.611zm-1065.1 76.021c-0.028 1.035 0.569 1.985 1.516 2.408l14.792 6.61-14.193 31.757c-0.577 1.292 2e-3 2.806 1.294 3.384l17.596 7.864c1.291 0.577 2.806-3e-3 3.383-1.294l14.193-31.756 14.791 6.611c0.946 0.422 2.052 0.234 2.805-0.478 0.753-0.711 1.003-1.806 0.634-2.773l-14.321-37.562c-0.241-0.634-0.728-1.148-1.348-1.425-0.621-0.278-1.326-0.297-1.961-0.054l-37.537 14.385c-0.967 0.372-1.616 1.288-1.644 2.323zm-18.759 4.518-14.192 31.757-14.791-6.611c-0.946-0.422-2.052-0.234-2.805 0.478-0.753 0.711-1.003 1.806-0.634 2.773l14.321 37.562c0.241 0.634 0.728 1.148 1.348 1.425 0.621 0.278 1.326 0.297 1.961 0.054l37.537-14.385c0.966-0.371 1.615-1.287 1.643-2.322s-0.569-1.985-1.516-2.408l-14.792-6.61 14.192-31.757c0.578-1.292-1e-3 -2.806-1.293-3.384l-17.596-7.864c-1.291-0.579-2.805 1e-3 -3.383 1.292zm245.53-4.518c-0.028 1.035 0.569 1.985 1.516 2.408l14.792 6.61-14.193 31.757c-0.577 1.292 2e-3 2.806 1.294 3.384l17.596 7.864c1.291 0.577 2.806-3e-3 3.383-1.294l14.193-31.756 14.791 6.611c0.946 0.422 2.052 0.234 2.805-0.478 0.753-0.711 1.003-1.806 0.634-2.773l-14.321-37.562c-0.241-0.634-0.728-1.148-1.348-1.425-0.621-0.278-1.326-0.297-1.961-0.054l-37.537 14.385c-0.967 0.372-1.617 1.288-1.644 2.323zm-18.76 4.518-14.192 31.757-14.791-6.611c-0.946-0.422-2.052-0.234-2.805 0.478-0.753 0.711-1.003 1.806-0.634 2.773l14.321 37.562c0.241 0.634 0.728 1.148 1.348 1.425 0.621 0.278 1.326 0.297 1.961 0.054l37.537-14.385c0.966-0.371 1.615-1.287 1.643-2.322s-0.569-1.985-1.516-2.408l-14.792-6.61 14.192-31.757c0.578-1.292-1e-3 -2.806-1.293-3.384l-17.596-7.864c-1.29-0.579-2.805 1e-3 -3.383 1.292zm-141.73 85.039-14.192 31.756-14.791-6.611c-0.946-0.422-2.052-0.234-2.805 0.478-0.753 0.711-1.003 1.806-0.634 2.773l14.321 37.562c0.241 0.634 0.728 1.147 1.348 1.425 0.621 0.278 1.326 0.297 1.961 0.054l37.537-14.385c0.966-0.37 1.615-1.286 1.643-2.322 0.028-1.034-0.569-1.985-1.516-2.407l-14.792-6.61 14.192-31.757c0.578-1.292-1e-3 -2.806-1.293-3.384l-17.596-7.864c-1.291-0.578-2.805 2e-3 -3.383 1.292zm18.759-4.517c-0.028 1.035 0.569 1.985 1.516 2.408l14.792 6.61-14.193 31.757c-0.577 1.291 2e-3 2.806 1.294 3.384l17.596 7.864c1.291 0.576 2.806-3e-3 3.383-1.294l14.193-31.756 14.791 6.611c0.946 0.422 2.052 0.234 2.805-0.478 0.753-0.711 1.003-1.806 0.634-2.773l-14.321-37.562c-0.241-0.634-0.728-1.148-1.348-1.425-0.621-0.278-1.326-0.297-1.961-0.054l-37.537 14.385c-0.967 0.371-1.616 1.287-1.644 2.323zm226.77 0c-0.028 1.035 0.569 1.985 1.516 2.408l14.792 6.61-14.193 31.757c-0.577 1.291 2e-3 2.806 1.294 3.384l17.596 7.864c1.291 0.576 2.806-3e-3 3.383-1.294l14.193-31.756 14.791 6.611c0.946 0.422 2.052 0.234 2.805-0.478 0.753-0.711 1.003-1.806 0.634-2.773l-14.321-37.562c-0.241-0.634-0.728-1.148-1.348-1.425-0.621-0.278-1.326-0.297-1.961-0.054l-37.537 14.385c-0.967 0.371-1.617 1.287-1.644 2.323zm-18.76 4.517-14.192 31.756-14.791-6.611c-0.946-0.422-2.052-0.234-2.805 0.478-0.753 0.711-1.003 1.806-0.634 2.773l14.321 37.562c0.241 0.634 0.728 1.147 1.348 1.425 0.621 0.278 1.326 0.297 1.961 0.054l37.537-14.385c0.966-0.37 1.615-1.286 1.643-2.322 0.028-1.034-0.569-1.985-1.516-2.407l-14.792-6.61 14.192-31.757c0.578-1.292-1e-3 -2.806-1.293-3.384l-17.596-7.864c-1.29-0.578-2.805 2e-3 -3.383 1.292zm160.49-89.557c-0.028 1.035 0.569 1.985 1.516 2.408l14.792 6.61-14.193 31.757c-0.577 1.292 2e-3 2.806 1.294 3.384l17.596 7.864c1.291 0.577 2.806-3e-3 3.383-1.294l14.193-31.756 14.791 6.611c0.946 0.422 2.052 0.234 2.805-0.478 0.753-0.711 1.003-1.806 0.634-2.773l-14.321-37.562c-0.241-0.634-0.728-1.148-1.348-1.425-0.621-0.278-1.326-0.297-1.961-0.054l-37.537 14.385c-0.967 0.372-1.616 1.288-1.644 2.323zm-18.759 4.518-14.192 31.757-14.791-6.611c-0.946-0.422-2.052-0.234-2.805 0.478-0.753 0.711-1.003 1.806-0.634 2.773l14.321 37.562c0.241 0.634 0.728 1.148 1.348 1.425 0.621 0.278 1.326 0.297 1.961 0.054l37.537-14.385c0.966-0.371 1.615-1.287 1.643-2.322s-0.569-1.985-1.516-2.408l-14.792-6.61 14.192-31.757c0.578-1.292-1e-3 -2.806-1.293-3.384l-17.596-7.864c-1.291-0.579-2.805 1e-3 -3.383 1.292zm245.53-4.518c-0.028 1.035 0.569 1.985 1.516 2.408l14.792 6.61-14.193 31.757c-0.577 1.292 2e-3 2.806 1.294 3.384l17.596 7.864c1.291 0.577 2.806-3e-3 3.383-1.294l14.193-31.756 14.791 6.611c0.946 0.422 2.052 0.234 2.805-0.478 0.753-0.711 1.003-1.806 0.634-2.773l-14.321-37.562c-0.241-0.634-0.728-1.148-1.348-1.425-0.621-0.278-1.326-0.297-1.961-0.054l-37.537 14.385c-0.968 0.372-1.617 1.288-1.644 2.323zm-18.76 4.518-14.192 31.757-14.791-6.611c-0.946-0.422-2.052-0.234-2.805 0.478-0.753 0.711-1.003 1.806-0.634 2.773l14.321 37.562c0.241 0.634 0.728 1.148 1.348 1.425 0.621 0.278 1.326 0.297 1.961 0.054l37.537-14.385c0.966-0.371 1.615-1.287 1.643-2.322s-0.569-1.985-1.516-2.408l-14.792-6.61 14.192-31.757c0.578-1.292-1e-3 -2.806-1.293-3.384l-17.596-7.864c-1.29-0.579-2.805 1e-3 -3.383 1.292zm-122.97 80.522c-0.028 1.035 0.569 1.985 1.516 2.408l14.792 6.61-14.193 31.757c-0.577 1.291 2e-3 2.806 1.294 3.384l17.596 7.864c1.291 0.576 2.806-3e-3 3.383-1.294l14.193-31.756 14.791 6.611c0.946 0.422 2.052 0.234 2.805-0.478 0.753-0.711 1.003-1.806 0.634-2.773l-14.321-37.562c-0.241-0.634-0.728-1.148-1.348-1.425-0.621-0.278-1.326-0.297-1.961-0.054l-37.537 14.385c-0.967 0.371-1.616 1.287-1.644 2.323zm-18.759 4.517-14.192 31.756-14.791-6.611c-0.946-0.422-2.052-0.234-2.805 0.478-0.753 0.711-1.003 1.806-0.634 2.773l14.321 37.562c0.241 0.634 0.728 1.147 1.348 1.425 0.621 0.278 1.326 0.297 1.961 0.054l37.537-14.385c0.966-0.37 1.615-1.286 1.643-2.322 0.028-1.034-0.569-1.985-1.516-2.407l-14.792-6.61 14.192-31.757c0.578-1.292-1e-3 -2.806-1.293-3.384l-17.596-7.864c-1.291-0.578-2.805 2e-3 -3.383 1.292zm226.77 0-14.192 31.756-14.791-6.611c-0.946-0.422-2.052-0.234-2.805 0.478-0.753 0.711-1.003 1.806-0.634 2.773l14.321 37.562c0.241 0.634 0.728 1.147 1.348 1.425 0.621 0.278 1.326 0.297 1.961 0.054l37.537-14.385c0.966-0.37 1.615-1.286 1.643-2.322 0.028-1.034-0.569-1.985-1.516-2.407l-14.792-6.61 14.192-31.757c0.578-1.292-1e-3 -2.806-1.293-3.384l-17.596-7.864c-1.29-0.578-2.805 2e-3 -3.383 1.292zm18.76-4.517c-0.028 1.035 0.569 1.985 1.516 2.408l14.792 6.61-14.193 31.757c-0.577 1.291 2e-3 2.806 1.294 3.384l17.596 7.864c1.291 0.576 2.806-3e-3 3.383-1.294l14.193-31.756 14.791 6.611c0.946 0.422 2.052 0.234 2.805-0.478 0.753-0.711 1.003-1.806 0.634-2.773l-14.321-37.562c-0.241-0.634-0.728-1.148-1.348-1.425-0.621-0.278-1.326-0.297-1.961-0.054l-37.537 14.385c-0.967 0.371-1.617 1.287-1.644 2.323zm141.73-85.04c-0.028 1.035 0.569 1.985 1.516 2.408l14.792 6.61-14.193 31.757c-0.577 1.292 2e-3 2.806 1.294 3.384l17.596 7.864c1.291 0.577 2.806-3e-3 3.383-1.294l14.193-31.756 14.791 6.611c0.946 0.422 2.052 0.234 2.805-0.478 0.753-0.711 1.003-1.806 0.634-2.773l-14.321-37.562c-0.241-0.634-0.728-1.148-1.348-1.425-0.621-0.278-1.326-0.297-1.961-0.054l-37.537 14.385c-0.967 0.372-1.616 1.288-1.644 2.323zm-18.76 4.518-14.192 31.757-14.791-6.611c-0.946-0.422-2.052-0.234-2.805 0.478-0.753 0.711-1.003 1.806-0.634 2.773l14.321 37.562c0.241 0.634 0.728 1.148 1.348 1.425 0.621 0.278 1.326 0.297 1.961 0.054l37.537-14.385c0.966-0.371 1.615-1.287 1.643-2.322s-0.569-1.985-1.516-2.408l-14.792-6.61 14.192-31.757c0.578-1.292-1e-3 -2.806-1.293-3.384l-17.596-7.864c-1.29-0.579-2.804 1e-3 -3.383 1.292zm251.16 50.729c0.028-1.035-0.569-1.985-1.516-2.408l-14.792-6.61 14.192-31.757c0.578-1.292-1e-3 -2.806-1.293-3.384l-17.596-7.864c-1.291-0.577-2.806 3e-3 -3.384 1.293l-14.192 31.757-14.791-6.611c-0.946-0.422-2.052-0.234-2.805 0.478-0.753 0.711-1.003 1.806-0.634 2.773l14.321 37.562c0.241 0.634 0.728 1.148 1.348 1.425 0.621 0.278 1.326 0.297 1.961 0.054l37.537-14.385c0.967-0.371 1.616-1.287 1.644-2.323zm18.758-4.518 14.193-31.756 14.791 6.611c0.946 0.422 2.052 0.234 2.805-0.478 0.753-0.711 1.003-1.806 0.634-2.773l-14.321-37.562c-0.241-0.634-0.728-1.148-1.348-1.425-0.621-0.278-1.326-0.297-1.961-0.054l-37.537 14.385c-0.966 0.371-1.615 1.287-1.643 2.322s0.569 1.985 1.516 2.408l14.792 6.61-14.193 31.757c-0.577 1.292 2e-3 2.806 1.294 3.384l17.596 7.864c1.291 0.578 2.805-2e-3 3.382-1.293zm-166.12 34.311c-0.028 1.035 0.569 1.985 1.516 2.408l14.792 6.61-14.193 31.757c-0.577 1.291 2e-3 2.806 1.294 3.384l17.596 7.864c1.291 0.576 2.806-3e-3 3.383-1.294l14.193-31.756 14.791 6.611c0.946 0.422 2.052 0.234 2.805-0.478 0.753-0.711 1.003-1.806 0.634-2.773l-14.321-37.562c-0.241-0.634-0.728-1.148-1.348-1.425-0.621-0.278-1.326-0.297-1.961-0.054l-37.537 14.385c-0.967 0.371-1.616 1.287-1.644 2.323zm-18.759 4.517-14.192 31.756-14.791-6.611c-0.946-0.422-2.052-0.234-2.805 0.478-0.753 0.711-1.003 1.806-0.634 2.773l14.321 37.562c0.241 0.634 0.728 1.147 1.348 1.425 0.621 0.278 1.326 0.297 1.961 0.054l37.537-14.385c0.966-0.37 1.615-1.286 1.643-2.322 0.028-1.034-0.569-1.985-1.516-2.407l-14.792-6.61 14.192-31.757c0.578-1.292-1e-3 -2.806-1.293-3.384l-17.596-7.864c-1.291-0.578-2.805 2e-3 -3.383 1.292zm249.64 48.322-14.792-6.61 14.192-31.757c0.578-1.292-1e-3 -2.806-1.293-3.384l-17.596-7.864c-1.291-0.577-2.806 3e-3 -3.384 1.293l-14.192 31.756-14.791-6.611c-0.946-0.422-2.052-0.234-2.805 0.478-0.753 0.711-1.003 1.806-0.634 2.773l14.321 37.562c0.241 0.634 0.728 1.147 1.348 1.425 0.621 0.278 1.326 0.297 1.961 0.054l37.537-14.385c0.966-0.37 1.615-1.286 1.643-2.322 0.029-1.035-0.569-1.986-1.515-2.408zm52.697-30.506-14.321-37.562c-0.241-0.634-0.728-1.148-1.348-1.425-0.621-0.278-1.326-0.297-1.961-0.054l-37.537 14.385c-0.966 0.371-1.615 1.287-1.643 2.322s0.569 1.985 1.516 2.408l14.792 6.61-14.193 31.757c-0.577 1.291 2e-3 2.806 1.294 3.384l17.596 7.864c1.291 0.576 2.806-3e-3 3.383-1.294l14.193-31.756 14.791 6.611c0.946 0.422 2.052 0.234 2.805-0.478 0.752-0.71 1.002-1.805 0.633-2.772zm-1411.9 95.619 14.321 37.562c0.241 0.634 0.728 1.147 1.348 1.425 0.621 0.278 1.326 0.297 1.961 0.054l37.537-14.385c0.966-0.37 1.615-1.286 1.643-2.322 0.028-1.034-0.569-1.985-1.516-2.407l-14.792-6.61 14.192-31.757c0.578-1.292-1e-3 -2.807-1.293-3.384l-17.596-7.864c-1.291-0.577-2.806 3e-3 -3.384 1.293l-14.192 31.757-14.791-6.611c-0.946-0.422-2.052-0.234-2.805 0.478-0.753 0.709-1.003 1.805-0.633 2.771zm92.322-49.566c-0.621-0.278-1.326-0.297-1.961-0.055l-37.537 14.385c-0.966 0.371-1.615 1.287-1.643 2.322s0.569 1.985 1.516 2.408l14.792 6.61-14.193 31.757c-0.577 1.291 2e-3 2.806 1.294 3.384l17.596 7.864c1.291 0.576 2.806-3e-3 3.383-1.294l14.193-31.757 14.791 6.611c0.946 0.423 2.052 0.234 2.805-0.478 0.753-0.711 1.003-1.806 0.634-2.772l-14.321-37.562c-0.243-0.633-0.729-1.147-1.349-1.423zm174.95 62.882 14.192-31.757c0.578-1.292-1e-3 -2.807-1.293-3.384l-17.596-7.864c-1.291-0.577-2.806 3e-3 -3.384 1.293l-14.192 31.757-14.791-6.611c-0.946-0.422-2.052-0.234-2.805 0.478-0.753 0.711-1.003 1.807-0.634 2.773l14.321 37.562c0.241 0.634 0.728 1.147 1.348 1.425 0.621 0.278 1.326 0.297 1.961 0.054l37.537-14.385c0.966-0.37 1.615-1.286 1.643-2.322 0.028-1.034-0.569-1.985-1.516-2.407l-14.791-6.612zm35.066 4.5 14.193-31.757 14.791 6.611c0.946 0.423 2.052 0.234 2.805-0.478 0.753-0.711 1.003-1.806 0.634-2.772l-14.321-37.562c-0.241-0.635-0.728-1.148-1.348-1.425-0.621-0.278-1.326-0.297-1.961-0.055l-37.537 14.385c-0.966 0.371-1.615 1.287-1.643 2.322s0.569 1.985 1.516 2.408l14.792 6.61-14.193 31.757c-0.577 1.291 2e-3 2.806 1.294 3.384l17.596 7.864c1.291 0.578 2.805-1e-3 3.382-1.292zm-160.49 89.557c0.028-1.035-0.569-1.985-1.516-2.408l-14.792-6.61 14.192-31.757c0.578-1.292-1e-3 -2.806-1.293-3.384l-17.596-7.864c-1.291-0.577-2.806 3e-3 -3.384 1.294l-14.192 31.757-14.791-6.611c-0.946-0.423-2.052-0.234-2.805 0.478-0.753 0.711-1.003 1.806-0.634 2.772l14.321 37.562c0.241 0.635 0.728 1.148 1.348 1.425 0.621 0.278 1.326 0.297 1.961 0.055l37.537-14.385c0.967-0.372 1.617-1.288 1.644-2.324zm35.513-71.9c-0.621-0.278-1.326-0.297-1.961-0.054l-37.537 14.385c-0.966 0.37-1.615 1.286-1.643 2.322-0.028 1.034 0.569 1.985 1.516 2.407l14.792 6.61-14.193 31.757c-0.577 1.292 2e-3 2.807 1.294 3.384l17.596 7.864c1.291 0.577 2.806-3e-3 3.383-1.294l14.193-31.756 14.791 6.611c0.946 0.422 2.052 0.234 2.805-0.478 0.753-0.711 1.003-1.807 0.634-2.773l-14.321-37.562c-0.243-0.632-0.729-1.146-1.349-1.423zm191.26 71.9c0.028-1.035-0.569-1.985-1.516-2.408l-14.792-6.61 14.192-31.757c0.578-1.292-1e-3 -2.806-1.293-3.384l-17.596-7.864c-1.291-0.577-2.806 3e-3 -3.384 1.294l-14.192 31.757-14.791-6.611c-0.946-0.423-2.052-0.234-2.805 0.478-0.753 0.711-1.003 1.806-0.634 2.772l14.321 37.562c0.241 0.635 0.728 1.148 1.348 1.425 0.621 0.278 1.326 0.297 1.961 0.055l37.537-14.385c0.967-0.372 1.616-1.288 1.644-2.324zm35.512-71.9c-0.621-0.278-1.326-0.297-1.961-0.054l-37.537 14.385c-0.966 0.37-1.615 1.286-1.643 2.322-0.028 1.034 0.569 1.985 1.516 2.407l14.792 6.61-14.193 31.757c-0.577 1.292 2e-3 2.807 1.294 3.384l17.596 7.864c1.291 0.577 2.806-3e-3 3.383-1.294l14.193-31.756 14.791 6.611c0.946 0.422 2.052 0.234 2.805-0.478 0.753-0.711 1.003-1.807 0.634-2.773l-14.321-37.562c-0.242-0.632-0.728-1.146-1.349-1.423zm124.98-17.657 14.193-31.757 14.791 6.611c0.946 0.423 2.052 0.234 2.805-0.478 0.753-0.711 1.003-1.806 0.634-2.772l-14.321-37.562c-0.241-0.635-0.728-1.148-1.348-1.425-0.621-0.278-1.326-0.297-1.961-0.055l-37.537 14.385c-0.966 0.371-1.615 1.287-1.643 2.322s0.569 1.985 1.516 2.408l14.792 6.61-14.193 31.757c-0.577 1.291 2e-3 2.806 1.294 3.384l17.596 7.864c1.29 0.578 2.805-1e-3 3.382-1.292zm-35.066-4.5 14.192-31.757c0.578-1.292-1e-3 -2.807-1.293-3.384l-17.596-7.864c-1.291-0.577-2.806 3e-3 -3.384 1.293l-14.192 31.757-14.791-6.611c-0.946-0.422-2.052-0.234-2.805 0.478-0.753 0.711-1.003 1.807-0.634 2.773l14.321 37.562c0.241 0.634 0.728 1.147 1.348 1.425 0.621 0.278 1.326 0.297 1.961 0.054l37.537-14.385c0.966-0.37 1.615-1.286 1.643-2.322 0.028-1.034-0.569-1.985-1.516-2.407l-14.791-6.612zm226.77 0 14.192-31.757c0.578-1.292-1e-3 -2.807-1.293-3.384l-17.596-7.864c-1.291-0.577-2.806 3e-3 -3.384 1.293l-14.192 31.757-14.79-6.612c-0.946-0.422-2.052-0.234-2.805 0.478-0.753 0.711-1.003 1.807-0.634 2.773l14.321 37.562c0.241 0.634 0.728 1.147 1.348 1.425 0.621 0.278 1.326 0.297 1.961 0.054l37.537-14.385c0.966-0.37 1.615-1.286 1.643-2.322 0.028-1.034-0.569-1.985-1.516-2.407l-14.792-6.611zm35.066 4.5 14.193-31.757 14.791 6.611c0.946 0.423 2.052 0.234 2.805-0.478 0.753-0.711 1.003-1.806 0.634-2.772l-14.321-37.562c-0.241-0.635-0.728-1.148-1.348-1.425-0.621-0.278-1.326-0.297-1.961-0.055l-37.537 14.385c-0.966 0.371-1.615 1.287-1.643 2.322s0.569 1.985 1.516 2.408l14.792 6.61-14.193 31.757c-0.577 1.291 2e-3 2.806 1.294 3.384l17.596 7.864c1.291 0.578 2.805-1e-3 3.382-1.292zm-124.98 17.657c-0.621-0.278-1.326-0.297-1.961-0.054l-37.537 14.385c-0.966 0.37-1.615 1.286-1.643 2.322-0.028 1.034 0.569 1.985 1.516 2.407l14.792 6.61-14.193 31.757c-0.577 1.292 2e-3 2.807 1.294 3.384l17.596 7.864c1.291 0.577 2.806-3e-3 3.383-1.294l14.193-31.756 14.791 6.611c0.946 0.422 2.052 0.234 2.805-0.478 0.753-0.711 1.003-1.807 0.634-2.773l-14.321-37.562c-0.243-0.632-0.729-1.146-1.349-1.423zm-35.513 71.9c0.028-1.035-0.569-1.985-1.516-2.408l-14.792-6.61 14.192-31.757c0.578-1.292-1e-3 -2.806-1.293-3.384l-17.596-7.864c-1.291-0.577-2.806 3e-3 -3.384 1.294l-14.192 31.757-14.791-6.611c-0.946-0.423-2.052-0.234-2.805 0.478-0.753 0.711-1.003 1.806-0.634 2.772l14.321 37.562c0.241 0.635 0.728 1.148 1.348 1.425 0.621 0.278 1.326 0.297 1.961 0.055l37.537-14.385c0.967-0.372 1.617-1.288 1.644-2.324zm262.28-71.9c-0.621-0.278-1.326-0.297-1.961-0.054l-37.537 14.385c-0.966 0.37-1.615 1.286-1.643 2.322-0.028 1.034 0.569 1.985 1.516 2.407l14.792 6.61-14.193 31.757c-0.577 1.292 2e-3 2.807 1.294 3.384l17.596 7.864c1.291 0.577 2.806-3e-3 3.383-1.294l14.193-31.756 14.791 6.611c0.946 0.422 2.052 0.234 2.805-0.478 0.753-0.711 1.003-1.807 0.634-2.773l-14.321-37.562c-0.242-0.632-0.729-1.146-1.349-1.423zm-35.512 71.9c0.028-1.035-0.569-1.985-1.516-2.408l-14.792-6.61 14.192-31.757c0.578-1.292-1e-3 -2.806-1.293-3.384l-17.596-7.864c-1.291-0.577-2.806 3e-3 -3.384 1.294l-14.192 31.757-14.791-6.611c-0.946-0.423-2.052-0.234-2.805 0.478-0.753 0.711-1.003 1.806-0.634 2.772l14.321 37.562c0.241 0.635 0.728 1.148 1.348 1.425 0.621 0.278 1.326 0.297 1.961 0.055l37.537-14.385c0.967-0.372 1.616-1.288 1.644-2.324zm160.49-89.557 14.193-31.757 14.791 6.611c0.946 0.423 2.052 0.234 2.805-0.478 0.753-0.711 1.003-1.806 0.634-2.772l-14.321-37.562c-0.241-0.635-0.728-1.148-1.348-1.425-0.621-0.278-1.326-0.297-1.961-0.055l-37.537 14.385c-0.966 0.371-1.615 1.287-1.643 2.322s0.569 1.985 1.516 2.408l14.792 6.61-14.193 31.757c-0.577 1.291 2e-3 2.806 1.294 3.384l17.596 7.864c1.29 0.578 2.805-1e-3 3.382-1.292zm-35.067-4.5 14.192-31.757c0.578-1.292-1e-3 -2.807-1.293-3.384l-17.596-7.864c-1.291-0.577-2.806 3e-3 -3.384 1.293l-14.192 31.757-14.791-6.611c-0.946-0.422-2.052-0.234-2.805 0.478-0.753 0.711-1.003 1.807-0.634 2.773l14.321 37.562c0.241 0.634 0.728 1.147 1.348 1.425 0.621 0.278 1.326 0.297 1.961 0.054l37.537-14.385c0.966-0.37 1.615-1.286 1.643-2.322 0.028-1.034-0.569-1.985-1.516-2.407l-14.791-6.612zm261.84 4.5 14.193-31.757 14.791 6.611c0.946 0.423 2.052 0.234 2.805-0.478 0.753-0.711 1.003-1.806 0.634-2.772l-14.321-37.562c-0.241-0.635-0.728-1.148-1.348-1.425-0.621-0.278-1.326-0.297-1.961-0.055l-37.537 14.385c-0.966 0.371-1.615 1.287-1.643 2.322s0.569 1.985 1.516 2.408l14.792 6.61-14.193 31.757c-0.577 1.291 2e-3 2.806 1.294 3.384l17.596 7.864c1.291 0.578 2.805-1e-3 3.382-1.292zm-18.758 4.517c0.028-1.034-0.569-1.985-1.516-2.407l-14.792-6.61 14.192-31.757c0.578-1.292-1e-3 -2.807-1.293-3.384l-17.596-7.864c-1.291-0.577-2.806 3e-3 -3.384 1.293l-14.192 31.757-14.791-6.611c-0.946-0.422-2.052-0.234-2.805 0.478-0.753 0.711-1.003 1.807-0.634 2.773l14.321 37.562c0.241 0.634 0.728 1.147 1.348 1.425 0.621 0.278 1.326 0.297 1.961 0.054l37.537-14.385c0.967-0.371 1.616-1.287 1.644-2.324zm-106.22 13.14c-0.621-0.278-1.326-0.297-1.961-0.054l-37.537 14.385c-0.966 0.37-1.615 1.286-1.643 2.322-0.028 1.034 0.569 1.985 1.516 2.407l14.792 6.61-14.193 31.757c-0.577 1.292 2e-3 2.807 1.294 3.384l17.596 7.864c1.291 0.577 2.806-3e-3 3.383-1.294l14.193-31.756 14.791 6.611c0.946 0.422 2.052 0.234 2.805-0.478 0.753-0.711 1.003-1.807 0.634-2.773l-14.321-37.562c-0.243-0.632-0.729-1.146-1.349-1.423zm-35.513 71.9c0.028-1.035-0.569-1.985-1.516-2.408l-14.792-6.61 14.192-31.757c0.578-1.292-1e-3 -2.806-1.293-3.384l-17.596-7.864c-1.291-0.577-2.806 3e-3 -3.384 1.294l-14.192 31.757-14.791-6.611c-0.946-0.423-2.052-0.234-2.805 0.478-0.753 0.711-1.003 1.806-0.634 2.772l14.321 37.562c0.241 0.635 0.728 1.148 1.348 1.425 0.621 0.278 1.326 0.297 1.961 0.055l37.537-14.385c0.967-0.372 1.617-1.288 1.644-2.324zm263.63-70.475c-0.241-0.634-0.728-1.147-1.348-1.425-0.621-0.278-1.326-0.297-1.961-0.054l-37.537 14.385c-0.966 0.37-1.615 1.286-1.643 2.322-0.028 1.034 0.569 1.985 1.516 2.407l14.792 6.61-14.193 31.757c-0.577 1.292 2e-3 2.807 1.294 3.384l17.596 7.864c1.291 0.577 2.806-3e-3 3.383-1.294l14.193-31.756 14.791 6.611c0.946 0.422 2.052 0.234 2.805-0.478 0.753-0.711 1.003-1.807 0.634-2.773l-14.322-37.56zm-38.376 68.067-14.792-6.61 14.192-31.757c0.578-1.292-1e-3 -2.806-1.293-3.384l-17.596-7.864c-1.291-0.577-2.806 3e-3 -3.384 1.294l-14.192 31.757-14.791-6.611c-0.946-0.423-2.052-0.234-2.805 0.478-0.753 0.711-1.003 1.806-0.634 2.772l14.321 37.562c0.241 0.635 0.728 1.148 1.348 1.425 0.621 0.278 1.326 0.297 1.961 0.055l37.537-14.385c0.966-0.371 1.615-1.287 1.643-2.322 0.029-1.037-0.569-1.987-1.515-2.41zm-1283.7 82.929 14.193-31.756 14.791 6.611c0.946 0.423 2.052 0.234 2.805-0.478 0.753-0.711 1.003-1.806 0.634-2.772l-14.321-37.562c-0.241-0.635-0.728-1.148-1.348-1.425-0.621-0.278-1.326-0.297-1.961-0.055l-37.537 14.385c-0.966 0.371-1.615 1.287-1.643 2.322s0.569 1.985 1.516 2.408l14.792 6.61-14.193 31.756c-0.577 1.292 2e-3 2.807 1.294 3.384l17.596 7.864c1.29 0.579 2.805-1e-3 3.382-1.292zm-35.067-4.5 14.192-31.756c0.578-1.292-1e-3 -2.807-1.293-3.384l-17.596-7.864c-1.291-0.577-2.806 3e-3 -3.384 1.293l-14.192 31.757-14.791-6.611c-0.946-0.422-2.052-0.234-2.805 0.478-0.753 0.711-1.003 1.806-0.634 2.772l14.321 37.562c0.241 0.635 0.728 1.148 1.348 1.425 0.621 0.278 1.326 0.297 1.961 0.055l37.537-14.385c0.966-0.371 1.615-1.287 1.643-2.322s-0.569-1.985-1.516-2.408l-14.791-6.612zm200.59 24.246c0.241 0.635 0.728 1.148 1.348 1.425 0.621 0.278 1.326 0.297 1.961 0.055l37.537-14.385c0.966-0.371 1.615-1.287 1.643-2.322s-0.569-1.985-1.516-2.408l-14.792-6.61 14.192-31.756c0.578-1.292-1e-3 -2.807-1.293-3.384l-17.596-7.864c-1.291-0.577-2.806 3e-3 -3.384 1.293l-14.192 31.757-14.791-6.611c-0.946-0.422-2.052-0.234-2.805 0.478-0.753 0.711-1.003 1.806-0.634 2.772l14.322 37.56zm61.247-19.746 14.193-31.756 14.791 6.611c0.946 0.423 2.052 0.234 2.805-0.478 0.753-0.711 1.003-1.806 0.634-2.772l-14.321-37.562c-0.241-0.635-0.728-1.148-1.348-1.425-0.621-0.278-1.326-0.297-1.961-0.055l-37.537 14.385c-0.966 0.371-1.615 1.287-1.643 2.322s0.569 1.985 1.516 2.408l14.792 6.61-14.193 31.756c-0.577 1.292 2e-3 2.807 1.294 3.384l17.596 7.864c1.291 0.579 2.805-1e-3 3.382-1.292zm-202.98 104.78c0.241 0.635 0.728 1.148 1.348 1.425 0.621 0.278 1.326 0.297 1.961 0.055l37.537-14.385c0.966-0.371 1.615-1.287 1.643-2.322s-0.569-1.985-1.516-2.408l-14.792-6.61 14.192-31.756c0.578-1.292-1e-3 -2.807-1.293-3.384l-17.596-7.864c-1.291-0.577-2.806 3e-3 -3.384 1.293l-14.192 31.757-14.791-6.611c-0.946-0.422-2.052-0.234-2.805 0.478-0.753 0.711-1.003 1.806-0.634 2.772l14.322 37.56zm61.247-19.746 14.193-31.756 14.791 6.611c0.946 0.423 2.052 0.234 2.805-0.478 0.753-0.711 1.003-1.806 0.634-2.772l-14.321-37.562c-0.241-0.635-0.728-1.148-1.348-1.425-0.621-0.278-1.326-0.297-1.961-0.055l-37.537 14.385c-0.966 0.371-1.615 1.287-1.643 2.322s0.569 1.985 1.516 2.408l14.792 6.61-14.193 31.756c-0.577 1.292 2e-3 2.807 1.294 3.384l17.596 7.864c1.29 0.579 2.805-1e-3 3.382-1.292zm165.52 19.746c0.241 0.635 0.728 1.148 1.348 1.425 0.621 0.278 1.326 0.297 1.961 0.055l37.537-14.385c0.966-0.371 1.615-1.287 1.643-2.322s-0.569-1.985-1.516-2.408l-14.792-6.61 14.192-31.756c0.578-1.292-1e-3 -2.807-1.293-3.384l-17.596-7.864c-1.291-0.577-2.806 3e-3 -3.384 1.293l-14.192 31.757-14.791-6.611c-0.946-0.422-2.052-0.234-2.805 0.478-0.753 0.711-1.003 1.806-0.634 2.772l14.322 37.56zm61.247-19.746 14.193-31.756 14.791 6.611c0.946 0.423 2.052 0.234 2.805-0.478 0.753-0.711 1.003-1.806 0.634-2.772l-14.321-37.562c-0.241-0.635-0.728-1.148-1.348-1.425-0.621-0.278-1.326-0.297-1.961-0.055l-37.537 14.385c-0.966 0.371-1.615 1.287-1.643 2.322s0.569 1.985 1.516 2.408l14.792 6.61-14.193 31.756c-0.577 1.292 2e-3 2.807 1.294 3.384l17.596 7.864c1.291 0.579 2.805-1e-3 3.382-1.292zm80.485-65.293c0.241 0.635 0.728 1.148 1.348 1.425 0.621 0.278 1.326 0.297 1.961 0.055l37.537-14.385c0.966-0.371 1.615-1.287 1.643-2.322s-0.569-1.985-1.516-2.408l-14.792-6.61 14.192-31.756c0.578-1.292-1e-3 -2.807-1.293-3.384l-17.596-7.864c-1.291-0.577-2.806 3e-3 -3.384 1.293l-14.192 31.757-14.791-6.611c-0.946-0.422-2.052-0.234-2.805 0.478-0.753 0.711-1.003 1.806-0.634 2.772l14.322 37.56zm61.247-19.746 14.193-31.756 14.791 6.611c0.946 0.423 2.052 0.234 2.805-0.478 0.753-0.711 1.003-1.806 0.634-2.772l-14.321-37.562c-0.241-0.635-0.728-1.148-1.348-1.425-0.621-0.278-1.326-0.297-1.961-0.055l-37.537 14.385c-0.966 0.371-1.615 1.287-1.643 2.322s0.569 1.985 1.516 2.408l14.792 6.61-14.193 31.756c-0.577 1.292 2e-3 2.807 1.294 3.384l17.596 7.864c1.29 0.579 2.805-1e-3 3.382-1.292zm226.77 0 14.193-31.756 14.791 6.611c0.946 0.423 2.052 0.234 2.805-0.478 0.753-0.711 1.003-1.806 0.634-2.772l-14.321-37.562c-0.241-0.635-0.728-1.148-1.348-1.425-0.621-0.278-1.326-0.297-1.961-0.055l-37.537 14.385c-0.966 0.371-1.615 1.287-1.643 2.322s0.569 1.985 1.516 2.408l14.792 6.61-14.193 31.756c-0.577 1.292 2e-3 2.807 1.294 3.384l17.596 7.864c1.291 0.579 2.805-1e-3 3.382-1.292zm-61.247 19.746c0.241 0.635 0.728 1.148 1.348 1.425 0.621 0.278 1.326 0.297 1.961 0.055l37.537-14.385c0.966-0.371 1.615-1.287 1.643-2.322s-0.569-1.985-1.516-2.408l-14.792-6.61 14.192-31.756c0.578-1.292-1e-3 -2.807-1.293-3.384l-17.596-7.864c-1.291-0.577-2.806 3e-3 -3.384 1.293l-14.192 31.757-14.791-6.611c-0.946-0.422-2.052-0.234-2.805 0.478-0.753 0.711-1.003 1.806-0.634 2.772l14.322 37.56zm-141.73 85.039c0.241 0.635 0.728 1.148 1.348 1.425 0.621 0.278 1.326 0.297 1.961 0.055l37.537-14.385c0.966-0.371 1.615-1.287 1.643-2.322s-0.569-1.985-1.516-2.408l-14.792-6.61 14.192-31.756c0.578-1.292-1e-3 -2.807-1.293-3.384l-17.596-7.864c-1.291-0.577-2.806 3e-3 -3.384 1.293l-14.192 31.757-14.791-6.611c-0.946-0.422-2.052-0.234-2.805 0.478-0.753 0.711-1.003 1.806-0.634 2.772l14.322 37.56zm61.247-19.746 14.193-31.756 14.791 6.611c0.946 0.423 2.052 0.234 2.805-0.478 0.753-0.711 1.003-1.806 0.634-2.772l-14.321-37.562c-0.241-0.635-0.728-1.148-1.348-1.425-0.621-0.278-1.326-0.297-1.961-0.055l-37.537 14.385c-0.966 0.371-1.615 1.287-1.643 2.322s0.569 1.985 1.516 2.408l14.792 6.61-14.193 31.756c-0.577 1.292 2e-3 2.807 1.294 3.384l17.596 7.864c1.29 0.579 2.805-1e-3 3.382-1.292zm165.52 19.746c0.241 0.635 0.728 1.148 1.348 1.425 0.621 0.278 1.326 0.297 1.961 0.055l37.537-14.385c0.966-0.371 1.615-1.287 1.643-2.322s-0.569-1.985-1.516-2.408l-14.792-6.61 14.192-31.756c0.578-1.292-1e-3 -2.807-1.293-3.384l-17.596-7.864c-1.291-0.577-2.806 3e-3 -3.384 1.293l-14.192 31.757-14.791-6.612c-0.946-0.422-2.052-0.234-2.805 0.478-0.753 0.711-1.003 1.806-0.634 2.772l14.322 37.561zm61.247-19.746 14.193-31.756 14.791 6.611c0.946 0.423 2.052 0.234 2.805-0.478 0.753-0.711 1.003-1.806 0.634-2.772l-14.321-37.562c-0.241-0.635-0.728-1.148-1.348-1.425-0.621-0.278-1.326-0.297-1.961-0.055l-37.537 14.385c-0.966 0.371-1.615 1.287-1.643 2.322s0.569 1.985 1.516 2.408l14.792 6.61-14.193 31.756c-0.577 1.292 2e-3 2.807 1.294 3.384l17.596 7.864c1.291 0.579 2.805-1e-3 3.382-1.292zm80.485-65.293c0.241 0.635 0.728 1.148 1.348 1.425 0.621 0.278 1.326 0.297 1.961 0.055l37.537-14.385c0.966-0.371 1.615-1.287 1.643-2.322s-0.569-1.985-1.516-2.408l-14.792-6.61 14.192-31.756c0.578-1.292-1e-3 -2.807-1.293-3.384l-17.596-7.864c-1.291-0.577-2.806 3e-3 -3.384 1.293l-14.192 31.757-14.791-6.611c-0.946-0.422-2.052-0.234-2.805 0.478-0.753 0.711-1.003 1.806-0.634 2.772l14.322 37.56zm61.247-19.746 14.193-31.756 14.791 6.611c0.946 0.423 2.052 0.234 2.805-0.478 0.753-0.711 1.003-1.806 0.634-2.772l-14.321-37.562c-0.241-0.635-0.728-1.148-1.348-1.425-0.621-0.278-1.326-0.297-1.961-0.055l-37.537 14.385c-0.966 0.371-1.615 1.287-1.643 2.322s0.569 1.985 1.516 2.408l14.792 6.61-14.193 31.756c-0.577 1.292 2e-3 2.807 1.294 3.384l17.596 7.864c1.29 0.579 2.805-1e-3 3.382-1.292zm165.52 19.746c0.241 0.635 0.728 1.148 1.348 1.425 0.621 0.278 1.326 0.297 1.961 0.055l37.537-14.385c0.966-0.371 1.615-1.287 1.643-2.322s-0.569-1.985-1.516-2.408l-14.792-6.61 14.192-31.756c0.578-1.292-1e-3 -2.807-1.293-3.384l-17.596-7.864c-1.291-0.577-2.806 3e-3 -3.384 1.293l-14.192 31.757-14.791-6.611c-0.946-0.422-2.052-0.234-2.805 0.478-0.753 0.711-1.003 1.806-0.634 2.772l14.322 37.56zm61.247-19.746 14.193-31.756 14.791 6.611c0.946 0.423 2.052 0.234 2.805-0.478 0.753-0.711 1.003-1.806 0.634-2.772l-14.321-37.562c-0.241-0.635-0.728-1.148-1.348-1.425-0.621-0.278-1.326-0.297-1.961-0.055l-37.537 14.385c-0.966 0.371-1.615 1.287-1.643 2.322s0.569 1.985 1.516 2.408l14.792 6.61-14.193 31.756c-0.577 1.292 2e-3 2.807 1.294 3.384l17.596 7.864c1.29 0.579 2.805-1e-3 3.382-1.292zm-141.73 85.039 14.193-31.756 14.791 6.611c0.946 0.423 2.052 0.234 2.805-0.478 0.753-0.711 1.003-1.806 0.634-2.772l-14.321-37.562c-0.241-0.635-0.728-1.148-1.348-1.425-0.621-0.278-1.326-0.297-1.961-0.055l-37.537 14.385c-0.966 0.371-1.615 1.287-1.643 2.322s0.569 1.985 1.516 2.408l14.792 6.61-14.193 31.756c-0.577 1.292 2e-3 2.807 1.294 3.384l17.596 7.864c1.29 0.579 2.805-1e-3 3.382-1.292zm-61.247 19.746c0.241 0.635 0.728 1.148 1.348 1.425 0.621 0.278 1.326 0.297 1.961 0.055l37.536-14.385c0.966-0.371 1.615-1.287 1.643-2.322s-0.569-1.985-1.516-2.408l-14.792-6.61 14.192-31.756c0.578-1.292-1e-3 -2.807-1.293-3.384l-17.596-7.864c-1.291-0.577-2.806 3e-3 -3.384 1.293l-14.192 31.757-14.791-6.611c-0.946-0.422-2.052-0.234-2.805 0.478-0.753 0.711-1.003 1.806-0.634 2.772l14.323 37.56zm306.12-85.702c-0.241-0.635-0.728-1.148-1.348-1.425-0.621-0.278-1.326-0.297-1.961-0.055l-37.537 14.385c-0.966 0.371-1.615 1.287-1.643 2.322s0.569 1.985 1.516 2.408l14.792 6.61-14.193 31.756c-0.577 1.292 2e-3 2.807 1.294 3.384l17.596 7.864c1.291 0.577 2.806-3e-3 3.383-1.294l14.193-31.756 14.791 6.611c0.946 0.423 2.052 0.234 2.805-0.478 0.753-0.711 1.003-1.806 0.634-2.772l-14.322-37.56zm-79.349 85.702c0.241 0.635 0.728 1.148 1.348 1.425 0.621 0.278 1.326 0.297 1.961 0.055l37.537-14.385c0.966-0.371 1.615-1.287 1.643-2.322s-0.569-1.985-1.516-2.408l-14.792-6.61 14.192-31.756c0.578-1.292-1e-3 -2.807-1.293-3.384l-17.596-7.864c-1.291-0.577-2.806 3e-3 -3.384 1.293l-14.192 31.757-14.791-6.611c-0.946-0.422-2.052-0.234-2.805 0.478-0.753 0.711-1.003 1.806-0.634 2.772l14.322 37.56zm-1263 67.403-14.792-6.61 14.192-31.757c0.578-1.292-1e-3 -2.806-1.293-3.384l-17.596-7.864c-1.291-0.577-2.806 3e-3 -3.384 1.294l-14.192 31.756-14.791-6.61c-0.946-0.423-2.052-0.234-2.805 0.478-0.753 0.711-1.003 1.806-0.634 2.772l14.321 37.562c0.241 0.634 0.728 1.147 1.348 1.425 0.621 0.278 1.326 0.297 1.961 0.054l37.537-14.385c0.966-0.37 1.615-1.286 1.643-2.322 0.029-1.036-0.568-1.987-1.515-2.409zm49.259-27.254c0.946 0.422 2.052 0.234 2.805-0.478 0.753-0.711 1.003-1.807 0.634-2.773l-14.321-37.562c-0.241-0.634-0.728-1.147-1.348-1.425-0.621-0.278-1.326-0.297-1.961-0.054l-37.537 14.385c-0.966 0.37-1.615 1.286-1.643 2.322-0.028 1.034 0.569 1.985 1.516 2.407l14.792 6.61-14.193 31.757c-0.577 1.291 2e-3 2.806 1.294 3.384l17.596 7.864c1.291 0.576 2.806-3e-3 3.383-1.294l14.193-31.756 14.79 6.613zm226.77 0c0.946 0.422 2.052 0.234 2.805-0.478 0.753-0.711 1.003-1.807 0.634-2.773l-14.321-37.562c-0.241-0.634-0.728-1.147-1.348-1.425-0.621-0.278-1.326-0.297-1.961-0.054l-37.537 14.385c-0.966 0.37-1.615 1.286-1.643 2.322-0.028 1.034 0.569 1.985 1.516 2.407l14.792 6.61-14.193 31.757c-0.577 1.291 2e-3 2.806 1.294 3.384l17.596 7.864c1.291 0.576 2.806-3e-3 3.383-1.294l14.193-31.756 14.79 6.613zm-49.259 27.254-14.792-6.61 14.192-31.757c0.578-1.292-1e-3 -2.806-1.293-3.384l-17.596-7.864c-1.291-0.577-2.806 3e-3 -3.384 1.294l-14.192 31.756-14.791-6.61c-0.946-0.423-2.052-0.234-2.805 0.478-0.753 0.711-1.003 1.806-0.634 2.772l14.321 37.562c0.241 0.634 0.728 1.147 1.348 1.425 0.621 0.278 1.326 0.297 1.961 0.054l37.537-14.385c0.966-0.37 1.615-1.286 1.643-2.322 0.029-1.036-0.569-1.987-1.515-2.409zm-92.474 57.785c0.946 0.422 2.052 0.234 2.805-0.478 0.753-0.711 1.003-1.807 0.634-2.773l-14.321-37.562c-0.241-0.634-0.728-1.147-1.348-1.425-0.621-0.278-1.326-0.297-1.961-0.054l-37.537 14.385c-0.966 0.37-1.615 1.286-1.643 2.322-0.028 1.034 0.569 1.985 1.516 2.407l14.792 6.61-14.193 31.757c-0.577 1.291 2e-3 2.806 1.294 3.384l17.596 7.864c1.291 0.576 2.806-3e-3 3.383-1.294l14.193-31.756 14.79 6.613zm-49.259 27.254-14.792-6.61 14.192-31.757c0.578-1.292-1e-3 -2.806-1.293-3.384l-17.596-7.864c-1.291-0.577-2.806 3e-3 -3.384 1.294l-14.192 31.756-14.791-6.61c-0.946-0.423-2.052-0.234-2.805 0.478-0.753 0.711-1.003 1.806-0.634 2.772l14.321 37.562c0.241 0.634 0.728 1.147 1.348 1.425 0.621 0.278 1.326 0.297 1.961 0.054l37.537-14.385c0.966-0.37 1.615-1.286 1.643-2.322 0.029-1.035-0.568-1.987-1.515-2.409zm276.03-27.254c0.946 0.422 2.052 0.234 2.805-0.478 0.753-0.711 1.003-1.807 0.634-2.773l-14.322-37.562c-0.241-0.634-0.728-1.147-1.348-1.425-0.621-0.278-1.326-0.297-1.961-0.054l-37.537 14.385c-0.966 0.37-1.615 1.286-1.643 2.322-0.028 1.034 0.569 1.985 1.516 2.407l14.792 6.61-14.193 31.757c-0.577 1.291 2e-3 2.806 1.294 3.384l17.596 7.864c1.291 0.576 2.806-3e-3 3.383-1.294l14.193-31.756 14.791 6.613zm-49.259 27.254-14.792-6.61 14.192-31.757c0.578-1.292-1e-3 -2.806-1.293-3.384l-17.596-7.864c-1.291-0.577-2.806 3e-3 -3.384 1.294l-14.192 31.756-14.791-6.61c-0.946-0.423-2.052-0.234-2.805 0.478-0.753 0.711-1.003 1.806-0.634 2.772l14.321 37.562c0.241 0.634 0.728 1.147 1.348 1.425 0.621 0.278 1.326 0.297 1.961 0.054l37.537-14.385c0.966-0.37 1.615-1.286 1.643-2.322 0.029-1.035-0.569-1.987-1.515-2.409zm190.99-112.29c0.946 0.422 2.052 0.234 2.805-0.478 0.753-0.711 1.003-1.807 0.634-2.773l-14.321-37.562c-0.241-0.634-0.728-1.147-1.348-1.425-0.621-0.278-1.326-0.297-1.961-0.054l-37.537 14.385c-0.966 0.37-1.615 1.286-1.643 2.322-0.028 1.034 0.569 1.985 1.516 2.407l14.792 6.61-14.193 31.757c-0.577 1.291 2e-3 2.806 1.294 3.384l17.596 7.864c1.291 0.576 2.806-3e-3 3.383-1.294l14.193-31.756 14.79 6.613zm-49.259 27.254-14.792-6.61 14.192-31.757c0.578-1.292-1e-3 -2.806-1.293-3.384l-17.596-7.864c-1.291-0.577-2.806 3e-3 -3.384 1.294l-14.192 31.756-14.791-6.61c-0.946-0.423-2.052-0.234-2.805 0.478-0.753 0.711-1.003 1.806-0.634 2.772l14.321 37.562c0.241 0.634 0.728 1.147 1.348 1.425 0.621 0.278 1.326 0.297 1.961 0.054l37.537-14.385c0.966-0.37 1.615-1.286 1.643-2.322 0.029-1.036-0.568-1.987-1.515-2.409zm226.77 0-14.792-6.61 14.192-31.757c0.578-1.292-1e-3 -2.806-1.293-3.384l-17.596-7.864c-1.291-0.577-2.806 3e-3 -3.384 1.294l-14.192 31.756-14.791-6.61c-0.946-0.423-2.052-0.234-2.805 0.478-0.753 0.711-1.003 1.806-0.634 2.772l14.321 37.562c0.241 0.634 0.728 1.147 1.348 1.425 0.621 0.278 1.326 0.297 1.961 0.054l37.537-14.385c0.966-0.37 1.615-1.286 1.643-2.322 0.029-1.036-0.569-1.987-1.515-2.409zm49.259-27.254c0.946 0.422 2.052 0.234 2.805-0.478 0.753-0.711 1.003-1.807 0.634-2.773l-14.321-37.562c-0.241-0.634-0.728-1.147-1.348-1.425-0.621-0.278-1.326-0.297-1.961-0.054l-37.537 14.385c-0.966 0.37-1.615 1.286-1.643 2.322-0.028 1.034 0.569 1.985 1.516 2.407l14.792 6.61-14.193 31.757c-0.577 1.291 2e-3 2.806 1.294 3.384l17.596 7.864c1.291 0.576 2.806-3e-3 3.383-1.294l14.193-31.756 14.79 6.613zm-141.73 85.039c0.946 0.422 2.052 0.234 2.805-0.478 0.753-0.711 1.003-1.807 0.634-2.773l-14.321-37.562c-0.241-0.634-0.728-1.147-1.348-1.425-0.621-0.278-1.326-0.297-1.961-0.054l-37.537 14.385c-0.966 0.37-1.615 1.286-1.643 2.322-0.028 1.034 0.569 1.985 1.516 2.407l14.792 6.61-14.193 31.757c-0.577 1.291 2e-3 2.806 1.294 3.384l17.596 7.864c1.291 0.576 2.806-3e-3 3.383-1.294l14.193-31.756 14.79 6.613zm-49.259 27.254-14.792-6.61 14.192-31.757c0.578-1.292-1e-3 -2.806-1.293-3.384l-17.596-7.864c-1.291-0.577-2.806 3e-3 -3.384 1.294l-14.192 31.756-14.791-6.61c-0.946-0.423-2.052-0.234-2.805 0.478-0.753 0.711-1.003 1.806-0.634 2.772l14.321 37.562c0.241 0.634 0.728 1.147 1.348 1.425 0.621 0.278 1.326 0.297 1.961 0.054l37.537-14.385c0.966-0.37 1.615-1.286 1.643-2.322 0.029-1.035-0.568-1.987-1.515-2.409zm226.77 0-14.792-6.61 14.192-31.757c0.578-1.292-1e-3 -2.806-1.293-3.384l-17.596-7.864c-1.291-0.577-2.806 3e-3 -3.384 1.294l-14.192 31.756-14.791-6.61c-0.946-0.423-2.052-0.234-2.805 0.478-0.753 0.711-1.003 1.806-0.634 2.772l14.321 37.562c0.241 0.634 0.728 1.147 1.348 1.425 0.621 0.278 1.326 0.297 1.961 0.054l37.537-14.385c0.966-0.37 1.615-1.286 1.643-2.322 0.029-1.035-0.569-1.987-1.515-2.409zm49.259-27.254c0.946 0.422 2.052 0.234 2.805-0.478 0.753-0.711 1.003-1.807 0.634-2.773l-14.321-37.562c-0.241-0.634-0.728-1.147-1.348-1.425-0.621-0.278-1.326-0.297-1.961-0.054l-37.537 14.385c-0.966 0.37-1.615 1.286-1.643 2.322-0.028 1.034 0.569 1.985 1.516 2.407l14.792 6.61-14.193 31.757c-0.577 1.291 2e-3 2.806 1.294 3.384l17.596 7.864c1.291 0.576 2.806-3e-3 3.383-1.294l14.193-31.756 14.79 6.613zm92.472-57.785-14.792-6.61 14.192-31.757c0.578-1.292-1e-3 -2.806-1.293-3.384l-17.596-7.864c-1.291-0.577-2.806 3e-3 -3.384 1.294l-14.192 31.756-14.791-6.61c-0.946-0.423-2.052-0.234-2.805 0.478-0.753 0.711-1.003 1.806-0.634 2.772l14.321 37.562c0.241 0.634 0.728 1.147 1.348 1.425 0.621 0.278 1.326 0.297 1.961 0.054l37.537-14.385c0.966-0.37 1.615-1.286 1.643-2.322 0.029-1.036-0.568-1.987-1.515-2.409zm49.259-27.254c0.946 0.422 2.052 0.234 2.805-0.478 0.753-0.711 1.003-1.807 0.634-2.773l-14.321-37.562c-0.241-0.634-0.728-1.147-1.348-1.425-0.621-0.278-1.326-0.297-1.961-0.054l-37.537 14.385c-0.966 0.37-1.615 1.286-1.643 2.322-0.028 1.034 0.569 1.985 1.516 2.407l14.792 6.61-14.193 31.757c-0.577 1.291 2e-3 2.806 1.294 3.384l17.596 7.864c1.291 0.576 2.806-3e-3 3.383-1.294l14.193-31.756 14.79 6.613zm177.51 27.254-14.792-6.61 14.192-31.757c0.578-1.292-1e-3 -2.806-1.293-3.384l-17.596-7.864c-1.291-0.577-2.806 3e-3 -3.384 1.294l-14.192 31.756-14.791-6.61c-0.946-0.423-2.052-0.234-2.805 0.478-0.753 0.711-1.003 1.806-0.634 2.772l14.321 37.562c0.241 0.634 0.728 1.147 1.348 1.425 0.621 0.278 1.326 0.297 1.961 0.054l37.537-14.385c0.966-0.37 1.615-1.286 1.643-2.322 0.029-1.036-0.569-1.987-1.515-2.409zm49.259-27.254c0.946 0.422 2.052 0.234 2.805-0.478 0.753-0.711 1.003-1.807 0.634-2.773l-14.321-37.562c-0.241-0.634-0.728-1.147-1.348-1.425-0.621-0.278-1.326-0.297-1.961-0.054l-37.537 14.385c-0.966 0.37-1.615 1.286-1.643 2.322-0.028 1.034 0.569 1.985 1.516 2.407l14.792 6.61-14.193 31.757c-0.577 1.291 2e-3 2.806 1.294 3.384l17.596 7.864c1.291 0.576 2.806-3e-3 3.383-1.294l14.193-31.756 14.79 6.613zm-141.73 85.039c0.946 0.422 2.052 0.234 2.805-0.478 0.753-0.711 1.003-1.807 0.634-2.773l-14.321-37.562c-0.241-0.634-0.728-1.147-1.348-1.425-0.621-0.278-1.326-0.297-1.961-0.054l-37.537 14.385c-0.966 0.37-1.615 1.286-1.643 2.322-0.028 1.034 0.569 1.985 1.516 2.407l14.792 6.61-14.193 31.757c-0.577 1.291 2e-3 2.806 1.294 3.384l17.596 7.864c1.291 0.576 2.806-3e-3 3.383-1.294l14.193-31.756 14.79 6.613zm-49.259 27.254-14.792-6.61 14.192-31.757c0.578-1.292-1e-3 -2.806-1.293-3.384l-17.596-7.864c-1.291-0.577-2.806 3e-3 -3.384 1.294l-14.192 31.756-14.791-6.61c-0.946-0.423-2.052-0.234-2.805 0.478-0.753 0.711-1.003 1.806-0.634 2.772l14.321 37.562c0.241 0.634 0.728 1.147 1.348 1.425 0.621 0.278 1.326 0.297 1.961 0.054l37.537-14.385c0.966-0.37 1.615-1.286 1.643-2.322 0.029-1.035-0.568-1.987-1.515-2.409zm226.77 0-14.792-6.61 14.192-31.757c0.578-1.292-1e-3 -2.806-1.293-3.384l-17.596-7.864c-1.291-0.577-2.806 3e-3 -3.384 1.294l-14.192 31.756-14.791-6.61c-0.946-0.423-2.052-0.234-2.805 0.478-0.753 0.711-1.003 1.806-0.634 2.772l14.321 37.562c0.241 0.634 0.728 1.147 1.348 1.425 0.621 0.278 1.326 0.297 1.961 0.054l37.537-14.385c0.966-0.37 1.615-1.286 1.643-2.322 0.029-1.035-0.569-1.987-1.515-2.409zm49.259-27.254c0.946 0.422 2.052 0.234 2.805-0.478 0.753-0.711 1.003-1.807 0.634-2.773l-14.321-37.562c-0.241-0.634-0.728-1.147-1.348-1.425-0.621-0.278-1.326-0.297-1.961-0.054l-37.537 14.385c-0.966 0.37-1.615 1.286-1.643 2.322-0.028 1.034 0.569 1.985 1.516 2.407l14.792 6.61-14.193 31.757c-0.577 1.291 2e-3 2.806 1.294 3.384l17.596 7.864c1.291 0.576 2.806-3e-3 3.383-1.294l14.193-31.756 14.79 6.613zm-1059.7 44.226c-0.241-0.634-0.728-1.147-1.348-1.425-0.621-0.278-1.326-0.297-1.961-0.054l-37.537 14.385c-0.966 0.37-1.615 1.286-1.643 2.322-0.028 1.034 0.569 1.985 1.516 2.407l14.792 6.61-14.193 31.757c-0.577 1.291 2e-3 2.806 1.294 3.384l17.596 7.864c1.291 0.576 2.806-3e-3 3.383-1.294l14.193-31.756 14.791 6.611c0.946 0.422 2.052 0.234 2.805-0.478 0.753-0.711 1.003-1.807 0.634-2.773l-14.322-37.56zm-38.376 68.068-14.792-6.61 14.192-31.757c0.578-1.292-1e-3 -2.806-1.293-3.384l-17.596-7.864c-1.291-0.577-2.806 3e-3 -3.384 1.294l-14.192 31.756-14.791-6.61c-0.946-0.423-2.052-0.234-2.805 0.478-0.753 0.711-1.003 1.806-0.634 2.772l14.321 37.562c0.241 0.634 0.728 1.147 1.348 1.425 0.621 0.278 1.326 0.297 1.961 0.054l37.537-14.385c0.966-0.37 1.615-1.286 1.643-2.322s-0.569-1.988-1.515-2.409zm226.77 0-14.792-6.61 14.192-31.757c0.578-1.292-1e-3 -2.806-1.293-3.384l-17.596-7.864c-1.291-0.577-2.806 3e-3 -3.384 1.294l-14.192 31.756-14.791-6.61c-0.946-0.423-2.052-0.234-2.805 0.478-0.753 0.711-1.003 1.806-0.634 2.772l14.321 37.562c0.241 0.634 0.728 1.147 1.348 1.425 0.621 0.278 1.326 0.297 1.961 0.054l37.537-14.385c0.966-0.37 1.615-1.286 1.643-2.322 0.029-1.036-0.569-1.988-1.515-2.409zm38.376-68.068c-0.241-0.634-0.728-1.147-1.348-1.425-0.621-0.278-1.326-0.297-1.961-0.054l-37.537 14.385c-0.966 0.37-1.615 1.286-1.643 2.322-0.028 1.034 0.569 1.985 1.516 2.407l14.792 6.61-14.193 31.757c-0.577 1.291 2e-3 2.806 1.294 3.384l17.596 7.864c1.291 0.576 2.806-3e-3 3.383-1.294l14.193-31.756 14.791 6.611c0.946 0.422 2.052 0.234 2.805-0.478 0.753-0.711 1.003-1.807 0.634-2.773l-14.322-37.56zm188.39 68.068-14.792-6.61 14.192-31.757c0.578-1.292-1e-3 -2.806-1.293-3.384l-17.596-7.864c-1.291-0.577-2.806 3e-3 -3.384 1.294l-14.192 31.756-14.791-6.61c-0.946-0.423-2.052-0.234-2.805 0.478-0.753 0.711-1.003 1.806-0.634 2.772l14.321 37.562c0.241 0.634 0.728 1.147 1.348 1.425 0.621 0.278 1.326 0.297 1.961 0.054l37.537-14.385c0.966-0.37 1.615-1.286 1.643-2.322 0.029-1.036-0.568-1.988-1.515-2.409zm38.376-68.068c-0.241-0.634-0.728-1.147-1.348-1.425-0.621-0.278-1.326-0.297-1.961-0.054l-37.537 14.385c-0.966 0.37-1.615 1.286-1.643 2.322-0.028 1.034 0.569 1.985 1.516 2.407l14.792 6.61-14.193 31.757c-0.577 1.291 2e-3 2.806 1.294 3.384l17.596 7.864c1.291 0.576 2.806-3e-3 3.383-1.294l14.193-31.756 14.791 6.611c0.946 0.422 2.052 0.234 2.805-0.478 0.753-0.711 1.003-1.807 0.634-2.773l-14.322-37.56zm188.4 68.068-14.792-6.61 14.192-31.757c0.578-1.292-1e-3 -2.806-1.293-3.384l-17.596-7.864c-1.291-0.577-2.806 3e-3 -3.384 1.294l-14.192 31.756-14.791-6.61c-0.946-0.423-2.052-0.234-2.805 0.478-0.753 0.711-1.003 1.806-0.634 2.772l14.321 37.562c0.241 0.634 0.728 1.147 1.348 1.425 0.621 0.278 1.326 0.297 1.961 0.054l37.537-14.385c0.966-0.37 1.615-1.286 1.643-2.322 0.029-1.036-0.569-1.988-1.515-2.409zm38.376-68.068c-0.241-0.634-0.728-1.147-1.348-1.425-0.621-0.278-1.326-0.297-1.961-0.054l-37.537 14.385c-0.966 0.37-1.615 1.286-1.643 2.322-0.028 1.034 0.569 1.985 1.516 2.407l14.792 6.61-14.193 31.757c-0.577 1.291 2e-3 2.806 1.294 3.384l17.596 7.864c1.291 0.576 2.806-3e-3 3.383-1.294l14.193-31.756 14.791 6.611c0.946 0.422 2.052 0.234 2.805-0.478 0.753-0.711 1.003-1.807 0.634-2.773l-14.322-37.56zm226.77 0c-0.241-0.634-0.728-1.147-1.348-1.425-0.621-0.278-1.326-0.297-1.961-0.054l-37.537 14.385c-0.966 0.37-1.615 1.286-1.643 2.322-0.028 1.034 0.569 1.985 1.516 2.407l14.792 6.61-14.193 31.757c-0.577 1.291 2e-3 2.806 1.294 3.384l17.596 7.864c1.291 0.576 2.806-3e-3 3.383-1.294l14.193-31.756 14.791 6.611c0.946 0.422 2.052 0.234 2.805-0.478 0.753-0.711 1.003-1.807 0.634-2.773l-14.322-37.56zm-38.376 68.068-14.792-6.61 14.192-31.757c0.578-1.292-1e-3 -2.806-1.293-3.384l-17.596-7.864c-1.291-0.577-2.806 3e-3 -3.384 1.294l-14.192 31.756-14.791-6.61c-0.946-0.423-2.052-0.234-2.805 0.478-0.753 0.711-1.003 1.806-0.634 2.772l14.321 37.562c0.241 0.634 0.728 1.147 1.348 1.425 0.621 0.278 1.326 0.297 1.961 0.054l37.537-14.385c0.966-0.37 1.615-1.286 1.643-2.322 0.029-1.036-0.568-1.988-1.515-2.409zm265.15-68.068c-0.241-0.634-0.728-1.147-1.348-1.425-0.621-0.278-1.326-0.297-1.961-0.054l-37.537 14.385c-0.966 0.37-1.615 1.286-1.643 2.322-0.028 1.034 0.569 1.985 1.516 2.407l14.792 6.61-14.193 31.757c-0.577 1.291 2e-3 2.806 1.294 3.384l17.596 7.864c1.291 0.576 2.806-3e-3 3.383-1.294l14.193-31.756 14.791 6.611c0.946 0.422 2.052 0.234 2.805-0.478 0.753-0.711 1.003-1.807 0.634-2.773l-14.322-37.56zm-38.376 68.068-14.792-6.61 14.192-31.757c0.578-1.292-1e-3 -2.806-1.293-3.384l-17.596-7.864c-1.291-0.577-2.806 3e-3 -3.384 1.294l-14.192 31.756-14.791-6.61c-0.946-0.423-2.052-0.234-2.805 0.478-0.753 0.711-1.003 1.806-0.634 2.772l14.321 37.562c0.241 0.634 0.728 1.147 1.348 1.425 0.621 0.278 1.326 0.297 1.961 0.054l37.537-14.385c0.966-0.37 1.615-1.286 1.643-2.322 0.029-1.036-0.569-1.988-1.515-2.409z" fill="#DAD9D9"/>
</svg>